{
.appVersion = "113";
DisplayStrings = (
A,
M
);
date = "2023-06-22 05:45:01 +0000";
designer = gainor;
designerURL = "https://gainor.xyz/";
familyName = "ai-baby";
featurePrefixes = (
{
automatic = 1;
code = "languagesystem DFLT dflt;\012";
name = Languagesystems;
}
);
fontMaster = (
{
alignmentZones = (
"{735, 14}",
"{700, 14}",
"{490, 14}",
"{0, -14}"
);
ascender = 735;
capHeight = 700;
descender = -210;
id = "718666B1-ADB8-4383-879A-27DBFADAFA96";
weightValue = 0;
widthValue = 0;
xHeight = 490;
}
);
glyphs = (
{
glyphname = A;
lastChange = "2023-06-27 06:09:00 +0000";
layers = (
{
layerId = "718666B1-ADB8-4383-879A-27DBFADAFA96";
paths = (
{
closed = 1;
nodes = (
"470 53 OFFCURVE",
"388 484 OFFCURVE",
"388 484 CURVE",
"388 484 OFFCURVE",
"385 492 OFFCURVE",
"377 492 CURVE",
"368 492 OFFCURVE",
"337 492 OFFCURVE",
"337 492 CURVE",
"337 492 OFFCURVE",
"326 494 OFFCURVE",
"321 481 CURVE",
"317 471 OFFCURVE",
"310 461 OFFCURVE",
"305 451 CURVE",
"294 432 OFFCURVE",
"284 414 OFFCURVE",
"274 395 CURVE",
"253 356 OFFCURVE",
"232 316 OFFCURVE",
"213 276 CURVE",
"174 197 OFFCURVE",
"139 117 OFFCURVE",
"109 34 CURVE",
"106 27 OFFCURVE",
"103 19 OFFCURVE",
"101 11 CURVE",
"101 11 OFFCURVE",
"99 8 OFFCURVE",
"101 5 CURVE",
"102 2 OFFCURVE",
"105 0 OFFCURVE",
"109 0 CURVE",
"113 0 OFFCURVE",
"154 0 OFFCURVE",
"154 0 CURVE",
"154 0 OFFCURVE",
"159 -1 OFFCURVE",
"162 6 CURVE",
"165 13 OFFCURVE",
"195 90 OFFCURVE",
"195 90 CURVE",
"195 90 OFFCURVE",
"195 94 OFFCURVE",
"200 94 CURVE",
"204 94 OFFCURVE",
"395 94 OFFCURVE",
"395 94 CURVE",
"395 94 OFFCURVE",
"401 94 OFFCURVE",
"403 89 CURVE",
"405 85 OFFCURVE",
"419 9 OFFCURVE",
"419 9 CURVE",
"419 9 OFFCURVE",
"420 0 OFFCURVE",
"429 0 CURVE",
"438 0 OFFCURVE",
"466 0 OFFCURVE",
"466 0 CURVE",
"466 0 OFFCURVE",
"475 -1 OFFCURVE",
"477 10 CURVE",
"479 21 OFFCURVE",
"473 40 OFFCURVE",
"472 46 CURVE"
);
},
{
closed = 1;
nodes = (
"385 153 OFFCURVE",
"244 153 OFFCURVE",
"235 153 CURVE SMOOTH",
"226 153 OFFCURVE",
"230 160 OFFCURVE",
"230 160 CURVE",
"231 169 OFFCURVE",
"264 241 OFFCURVE",
"289 295 CURVE SMOOTH",
"303 325 OFFCURVE",
"318 355 OFFCURVE",
"321 359 CURVE SMOOTH",
"333 379 OFFCURVE",
"349 372 OFFCURVE",
"350 366 CURVE SMOOTH",
"358 329 OFFCURVE",
"390 169 OFFCURVE",
"391 160 CURVE SMOOTH",
"393 152 OFFCURVE",
"385 153 OFFCURVE",
"385 153 CURVE SMOOTH"
);
}
);
width = 600;
}
);
unicode = 0041;
},
{
glyphname = B;
lastChange = "2023-06-27 06:09:24 +0000";
layers = (
{
layerId = "718666B1-ADB8-4383-879A-27DBFADAFA96";
paths = (
{
closed = 1;
nodes = (
"444 221 OFFCURVE",
"431 239 OFFCURVE",
"416 249 CURVE",
"402 259 OFFCURVE",
"388 268 OFFCURVE",
"385 269 CURVE",
"382 270 OFFCURVE",
"376 271 OFFCURVE",
"382 276 CURVE",
"387 281 OFFCURVE",
"401 294 OFFCURVE",
"403 299 CURVE",
"406 304 OFFCURVE",
"418 327 OFFCURVE",
"419 336 CURVE",
"421 344 OFFCURVE",
"423 376 OFFCURVE",
"421 387 CURVE",
"418 398 OFFCURVE",
"418 412 OFFCURVE",
"410 426 CURVE",
"401 441 OFFCURVE",
"387 462 OFFCURVE",
"368 472 CURVE",
"350 483 OFFCURVE",
"326 495 OFFCURVE",
"291 495 CURVE",
"256 495 OFFCURVE",
"159 495 OFFCURVE",
"159 495 CURVE",
"159 495 OFFCURVE",
"155 495 OFFCURVE",
"154 492 CURVE",
"154 489 OFFCURVE",
"154 484 OFFCURVE",
"154 484 CURVE",
"154 483 OFFCURVE",
"154 45 OFFCURVE",
"154 45 CURVE",
"154 6 LINE",
"154 6 OFFCURVE",
"155 3 OFFCURVE",
"157 3 CURVE",
"159 3 OFFCURVE",
"209 3 OFFCURVE",
"209 3 CURVE",
"209 3 OFFCURVE",
"212 4 OFFCURVE",
"213 9 CURVE",
"214 14 OFFCURVE",
"213 24 OFFCURVE",
"213 24 CURVE",
"213 24 OFFCURVE",
"213 27 OFFCURVE",
"215 27 CURVE",
"218 26 OFFCURVE",
"244 10 OFFCURVE",
"251 9 CURVE",
"259 8 OFFCURVE",
"266 1 OFFCURVE",
"310 3 CURVE",
"353 4 OFFCURVE",
"360 6 OFFCURVE",
"393 22 CURVE",
"426 37 OFFCURVE",
"447 69 OFFCURVE",
"452 79 CURVE",
"457 88 OFFCURVE",
"469 118 OFFCURVE",
"468 142 CURVE",
"466 166 OFFCURVE",
"464 190 OFFCURVE",
"454 205 CURVE"
);
},
{
closed = 1;
nodes = (
"241 450 OFFCURVE",
"277 454 OFFCURVE",
"307 445 CURVE",
"326 440 OFFCURVE",
"344 428 OFFCURVE",
"353 410 CURVE",
"358 399 OFFCURVE",
"360 388 OFFCURVE",
"361 376 CURVE",
"362 361 OFFCURVE",
"362 347 OFFCURVE",
"358 332 CURVE",
"354 319 OFFCURVE",
"347 307 OFFCURVE",
"337 298 CURVE",
"326 288 OFFCURVE",
"315 286 OFFCURVE",
"301 285 CURVE",
"272 284 OFFCURVE",
"243 282 OFFCURVE",
"218 269 CURVE",
"216 268 OFFCURVE",
"214 268 OFFCURVE",
"213 269 CURVE",
"213 270 OFFCURVE",
"213 270 OFFCURVE",
"213 271 CURVE",
"213 273 OFFCURVE",
"213 275 OFFCURVE",
"213 277 CURVE",
"213 312 OFFCURVE",
"213 347 OFFCURVE",
"213 383 CURVE",
"213 397 OFFCURVE",
"212 412 OFFCURVE",
"212 426 CURVE",
"212 426 OFFCURVE",
"212 431 OFFCURVE",
"215 433 CURVE"
);
},
{
closed = 1;
nodes = (
"344 52 OFFCURVE",
"330 50 OFFCURVE",
"316 49 CURVE SMOOTH",
"298 48 OFFCURVE",
"280 50 OFFCURVE",
"262 55 CURVE SMOOTH",
"254 57 OFFCURVE",
"245 61 OFFCURVE",
"237 65 CURVE SMOOTH",
"231 69 OFFCURVE",
"220 74 OFFCURVE",
"216 80 CURVE SMOOTH",
"214 83 OFFCURVE",
"212 80 OFFCURVE",
"212 94 CURVE SMOOTH",
"213 108 OFFCURVE",
"212 209 OFFCURVE",
"212 209 CURVE SMOOTH",
"212 209 OFFCURVE",
"212 212 OFFCURVE",
"216 215 CURVE SMOOTH",
"251 238 OFFCURVE",
"299 244 OFFCURVE",
"339 233 CURVE SMOOTH",
"356 229 OFFCURVE",
"372 222 OFFCURVE",
"384 209 CURVE SMOOTH",
"395 197 OFFCURVE",
"402 181 OFFCURVE",
"405 165 CURVE SMOOTH",
"412 122 OFFCURVE",
"400 74 OFFCURVE",
"356 57 CURVE SMOOTH"
);
}
);
width = 600;
}
);
unicode = 0042;
},
{
glyphname = C;
lastChange = "2023-06-27 06:09:45 +0000";
layers = (
{
layerId = "718666B1-ADB8-4383-879A-27DBFADAFA96";
paths = (
{
closed = 1;
nodes = (
"428 355 OFFCURVE",
"471 355 OFFCURVE",
"472 355 CURVE SMOOTH",
"479 355 OFFCURVE",
"471 377 OFFCURVE",
"470 380 CURVE SMOOTH",
"466 393 OFFCURVE",
"461 405 OFFCURVE",
"454 417 CURVE SMOOTH",
"440 440 OFFCURVE",
"420 460 OFFCURVE",
"396 473 CURVE SMOOTH",
"361 492 OFFCURVE",
"315 495 OFFCURVE",
"276 490 CURVE SMOOTH",
"240 486 OFFCURVE",
"216 480 OFFCURVE",
"183 455 CURVE SMOOTH",
"151 431 OFFCURVE",
"127 387 OFFCURVE",
"122 338 CURVE SMOOTH",
"116 289 OFFCURVE",
"122 158 OFFCURVE",
"122 158 CURVE",
"125 97 OFFCURVE",
"163 41 OFFCURVE",
"220 16 CURVE SMOOTH",
"246 4 OFFCURVE",
"276 0 OFFCURVE",
"306 0 CURVE SMOOTH",
"327 0 OFFCURVE",
"348 2 OFFCURVE",
"369 8 CURVE SMOOTH",
"390 14 OFFCURVE",
"407 26 OFFCURVE",
"423 41 CURVE SMOOTH",
"440 55 OFFCURVE",
"454 73 OFFCURVE",
"462 93 CURVE SMOOTH",
"476 127 OFFCURVE",
"474 150 OFFCURVE",
"474 150 CURVE SMOOTH",
"474 150 OFFCURVE",
"475 153 OFFCURVE",
"471 153 CURVE",
"421 153 LINE SMOOTH",
"421 153 OFFCURVE",
"416 154 OFFCURVE",
"415 148 CURVE SMOOTH",
"411 131 OFFCURVE",
"408 116 OFFCURVE",
"398 102 CURVE SMOOTH",
"388 85 OFFCURVE",
"372 72 OFFCURVE",
"355 64 CURVE SMOOTH",
"330 53 OFFCURVE",
"301 53 OFFCURVE",
"274 60 CURVE SMOOTH",
"250 66 OFFCURVE",
"225 80 OFFCURVE",
"206 97 CURVE SMOOTH",
"189 113 OFFCURVE",
"184 138 OFFCURVE",
"181 161 CURVE SMOOTH",
"176 194 OFFCURVE",
"179 229 OFFCURVE",
"179 262 CURVE SMOOTH",
"179 274 OFFCURVE",
"179 286 OFFCURVE",
"179 297 CURVE SMOOTH",
"179 313 OFFCURVE",
"179 329 OFFCURVE",
"182 344 CURVE SMOOTH",
"186 366 OFFCURVE",
"195 390 OFFCURVE",
"213 404 CURVE SMOOTH",
"229 419 OFFCURVE",
"248 431 OFFCURVE",
"269 435 CURVE SMOOTH",
"306 443 OFFCURVE",
"330 441 OFFCURVE",
"357 430 CURVE SMOOTH",
"373 424 OFFCURVE",
"388 413 OFFCURVE",
"397 398 CURVE SMOOTH",
"402 391 OFFCURVE",
"406 383 OFFCURVE",
"408 375 CURVE SMOOTH",
"409 371 OFFCURVE",
"411 355 OFFCURVE",
"416 355 CURVE SMOOTH"
);
}
);
width = 600;
}
);
unicode = 0043;
},
{
glyphname = D;
lastChange = "2023-06-27 06:10:01 +0000";
layers = (
{
layerId = "718666B1-ADB8-4383-879A-27DBFADAFA96";
paths = (
{
closed = 1;
nodes = (
"548 292 OFFCURVE",
"533 354 OFFCURVE",
"506 391 CURVE",
"466 448 OFFCURVE",
"422 482 OFFCURVE",
"353 490 CURVE",
"301 496 OFFCURVE",
"246 492 OFFCURVE",
"194 492 CURVE",
"151 492 OFFCURVE",
"108 492 OFFCURVE",
"65 492 CURVE",
"57 492 OFFCURVE",
"58 484 OFFCURVE",
"58 484 CURVE",
"58 484 OFFCURVE",
"58 484 OFFCURVE",
"58 483 CURVE",
"58 469 OFFCURVE",
"58 454 OFFCURVE",
"58 439 CURVE",
"58 406 OFFCURVE",
"58 373 OFFCURVE",
"58 340 CURVE",
"58 299 OFFCURVE",
"58 259 OFFCURVE",
"58 218 CURVE",
"58 180 OFFCURVE",
"58 142 OFFCURVE",
"58 103 CURVE",
"58 71 OFFCURVE",
"57 49 OFFCURVE",
"58 6 CURVE",
"58 4 OFFCURVE",
"59 2 OFFCURVE",
"60 1 CURVE",
"61 1 OFFCURVE",
"62 1 OFFCURVE",
"63 1 CURVE",
"88 1 OFFCURVE",
"113 0 OFFCURVE",
"139 0 CURVE",
"164 0 OFFCURVE",
"190 0 OFFCURVE",
"216 0 CURVE",
"263 0 OFFCURVE",
"285 1 OFFCURVE",
"348 1 CURVE",
"461 1 OFFCURVE",
"522 117 OFFCURVE",
"528 129 CURVE",
"547 172 OFFCURVE",
"548 196 OFFCURVE",
"548 246 CURVE"
);
},
{
closed = 1;
nodes = (
"462 125 OFFCURVE",
"441 96 OFFCURVE",
"414 75 CURVE SMOOTH",
"356 31 OFFCURVE",
"281 39 OFFCURVE",
"213 39 CURVE SMOOTH",
"194 39 OFFCURVE",
"146 39 OFFCURVE",
"127 40 CURVE SMOOTH",
"127 40 OFFCURVE",
"116 37 OFFCURVE",
"116 51 CURVE SMOOTH",
"117 441 LINE",
"117 441 OFFCURVE",
"116 452 OFFCURVE",
"119 453 CURVE SMOOTH",
"122 455 OFFCURVE",
"127 455 OFFCURVE",
"131 455 CURVE SMOOTH",
"134 455 OFFCURVE",
"286 455 OFFCURVE",
"286 455 CURVE SMOOTH",
"332 455 OFFCURVE",
"376 445 OFFCURVE",
"413 417 CURVE SMOOTH",
"443 393 OFFCURVE",
"465 360 OFFCURVE",
"475 324 CURVE SMOOTH",
"482 299 OFFCURVE",
"484 273 OFFCURVE",
"484 247 CURVE SMOOTH",
"484 217 OFFCURVE",
"483 187 OFFCURVE",
"473 158 CURVE SMOOTH"
);
}
);
width = 600;
}
);
unicode = 0044;
},
{
glyphname = E;
lastChange = "2023-06-27 06:10:24 +0000";
layers = (
{
layerId = "718666B1-ADB8-4383-879A-27DBFADAFA96";
paths = (
{
closed = 1;
nodes = (
"119 487 OFFCURVE",
"118 492 OFFCURVE",
"124 492 CURVE SMOOTH",
"130 492 OFFCURVE",
"173 492 OFFCURVE",
"173 492 CURVE SMOOTH",
"173 492 OFFCURVE",
"178 493 OFFCURVE",
"178 487 CURVE SMOOTH",
"178 480 OFFCURVE",
"178 343 OFFCURVE",
"178 343 CURVE",
"482 343 LINE",
"482 343 OFFCURVE",
"487 343 OFFCURVE",
"487 338 CURVE SMOOTH",
"487 332 OFFCURVE",
"487 289 OFFCURVE",
"487 289 CURVE SMOOTH",
"487 289 OFFCURVE",
"488 284 OFFCURVE",
"481 284 CURVE SMOOTH",
"474 284 OFFCURVE",
"178 284 OFFCURVE",
"178 284 CURVE",
"178 63 LINE",
"178 63 OFFCURVE",
"177 58 OFFCURVE",
"184 58 CURVE SMOOTH",
"190 58 OFFCURVE",
"481 58 OFFCURVE",
"481 58 CURVE SMOOTH",
"481 58 OFFCURVE",
"487 59 OFFCURVE",
"487 53 CURVE SMOOTH",
"487 48 OFFCURVE",
"487 5 OFFCURVE",
"487 5 CURVE SMOOTH",
"487 5 OFFCURVE",
"488 0 OFFCURVE",
"481 0 CURVE SMOOTH",
"475 0 OFFCURVE",
"126 0 OFFCURVE",
"126 0 CURVE SMOOTH",
"126 0 OFFCURVE",
"119 -1 OFFCURVE",
"119 7 CURVE SMOOTH",
"119 15 OFFCURVE",
"119 487 OFFCURVE",
"119 487 CURVE SMOOTH"
);
}
);
width = 600;
}
);
unicode = 0045;
},
{
glyphname = F;
lastChange = "2023-06-27 06:10:38 +0000";
layers = (
{
layerId = "718666B1-ADB8-4383-879A-27DBFADAFA96";
paths = (
{
closed = 1;
nodes = (
"137 466 OFFCURVE",
"141 492 OFFCURVE",
"163 492 CURVE SMOOTH",
"185 492 OFFCURVE",
"374 492 OFFCURVE",
"445 492 CURVE SMOOTH",
"457 492 OFFCURVE",
"471 487 OFFCURVE",
"471 464 CURVE SMOOTH",
"471 442 OFFCURVE",
"460 433 OFFCURVE",
"446 433 CURVE SMOOTH",
"438 433 OFFCURVE",
"207 433 OFFCURVE",
"207 433 CURVE SMOOTH",
"207 433 OFFCURVE",
"203 433 OFFCURVE",
"202 433 CURVE SMOOTH",
"201 432 OFFCURVE",
"201 428 OFFCURVE",
"201 428 CURVE",
"201 276 LINE",
"201 276 OFFCURVE",
"201 273 OFFCURVE",
"202 272 CURVE SMOOTH",
"202 271 OFFCURVE",
"206 271 OFFCURVE",
"206 271 CURVE",
"324 271 LINE",
"324 271 OFFCURVE",
"351 268 OFFCURVE",
"351 242 CURVE SMOOTH",
"351 216 OFFCURVE",
"324 213 OFFCURVE",
"324 213 CURVE SMOOTH",
"206 213 LINE SMOOTH",
"206 213 OFFCURVE",
"202 213 OFFCURVE",
"202 211 CURVE SMOOTH",
"201 210 OFFCURVE",
"201 210 OFFCURVE",
"201 206 CURVE SMOOTH",
"201 203 OFFCURVE",
"201 32 OFFCURVE",
"201 32 CURVE SMOOTH",
"201 32 OFFCURVE",
"198 1 OFFCURVE",
"170 0 CURVE SMOOTH",
"142 -1 OFFCURVE",
"137 25 OFFCURVE",
"137 32 CURVE SMOOTH",
"137 39 OFFCURVE",
"137 466 OFFCURVE",
"137 466 CURVE SMOOTH"
);
}
);
width = 600;
}
);
unicode = 0046;
},
{
glyphname = G;
lastChange = "2023-06-27 06:10:51 +0000";
layers = (
{
layerId = "718666B1-ADB8-4383-879A-27DBFADAFA96";
paths = (
{
closed = 1;
nodes = (
"467 252 LINE",
"467 252 OFFCURVE",
"476 253 OFFCURVE",
"476 246 CURVE SMOOTH",
"476 239 OFFCURVE",
"476 6 OFFCURVE",
"476 6 CURVE SMOOTH",
"476 6 OFFCURVE",
"477 0 OFFCURVE",
"470 0 CURVE SMOOTH",
"464 0 OFFCURVE",
"429 0 OFFCURVE",
"429 0 CURVE SMOOTH",
"429 0 OFFCURVE",
"425 -1 OFFCURVE",
"425 4 CURVE SMOOTH",
"425 9 OFFCURVE",
"424 70 OFFCURVE",
"424 70 CURVE SMOOTH",
"424 70 OFFCURVE",
"401 49 OFFCURVE",
"397 46 CURVE SMOOTH",
"393 44 OFFCURVE",
"366 26 OFFCURVE",
"348 24 CURVE SMOOTH",
"331 21 OFFCURVE",
"282 18 OFFCURVE",
"265 20 CURVE SMOOTH",
"248 23 OFFCURVE",
"224 28 OFFCURVE",
"211 37 CURVE SMOOTH",
"199 45 OFFCURVE",
"170 61 OFFCURVE",
"156 80 CURVE SMOOTH",
"143 99 OFFCURVE",
"124 127 OFFCURVE",
"120 159 CURVE SMOOTH",
"116 191 OFFCURVE",
"116 247 OFFCURVE",
"116 264 CURVE SMOOTH",
"116 281 OFFCURVE",
"116 341 OFFCURVE",
"120 357 CURVE SMOOTH",
"124 373 OFFCURVE",
"132 421 OFFCURVE",
"189 462 CURVE SMOOTH",
"247 503 OFFCURVE",
"335 495 OFFCURVE",
"372 481 CURVE SMOOTH",
"409 468 OFFCURVE",
"426 452 OFFCURVE",
"435 443 CURVE SMOOTH",
"443 434 OFFCURVE",
"463 410 OFFCURVE",
"469 389 CURVE SMOOTH",
"476 369 OFFCURVE",
"478 359 OFFCURVE",
"478 353 CURVE SMOOTH",
"479 347 OFFCURVE",
"479 333 OFFCURVE",
"479 333 CURVE SMOOTH",
"479 333 OFFCURVE",
"479 330 OFFCURVE",
"475 330 CURVE SMOOTH",
"471 330 OFFCURVE",
"432 330 OFFCURVE",
"432 330 CURVE SMOOTH",
"432 330 OFFCURVE",
"427 329 OFFCURVE",
"426 334 CURVE SMOOTH",
"426 340 OFFCURVE",
"423 363 OFFCURVE",
"415 380 CURVE SMOOTH",
"406 397 OFFCURVE",
"390 415 OFFCURVE",
"376 422 CURVE SMOOTH",
"362 429 OFFCURVE",
"338 442 OFFCURVE",
"305 441 CURVE SMOOTH",
"272 440 OFFCURVE",
"244 437 OFFCURVE",
"217 417 CURVE SMOOTH",
"189 396 OFFCURVE",
"176 365 OFFCURVE",
"174 343 CURVE SMOOTH",
"173 321 OFFCURVE",
"174 180 OFFCURVE",
"174 180 CURVE SMOOTH",
"174 180 OFFCURVE",
"177 139 OFFCURVE",
"194 120 CURVE SMOOTH",
"210 101 OFFCURVE",
"235 70 OFFCURVE",
"291 70 CURVE SMOOTH",
"347 69 OFFCURVE",
"369 86 OFFCURVE",
"369 86 CURVE SMOOTH",
"369 86 OFFCURVE",
"396 102 OFFCURVE",
"406 122 CURVE SMOOTH",
"416 142 OFFCURVE",
"420 145 OFFCURVE",
"421 163 CURVE SMOOTH",
"422 180 OFFCURVE",
"422 201 OFFCURVE",
"422 201 CURVE SMOOTH",
"422 201 OFFCURVE",
"423 204 OFFCURVE",
"419 204 CURVE SMOOTH",
"416 204 OFFCURVE",
"287 204 OFFCURVE",
"287 204 CURVE SMOOTH",
"287 204 OFFCURVE",
"282 204 OFFCURVE",
"282 209 CURVE SMOOTH",
"282 214 OFFCURVE",
"282 249 OFFCURVE",
"282 249 CURVE SMOOTH",
"282 249 OFFCURVE",
"281 252 OFFCURVE",
"287 252 CURVE SMOOTH"
);
}
);
width = 600;
}
);
unicode = 0047;
},
{
glyphname = H;
lastChange = "2023-06-27 06:11:14 +0000";
layers = (
{
layerId = "718666B1-ADB8-4383-879A-27DBFADAFA96";
paths = (
{
closed = 1;
nodes = (
"213 492 LINE",
"213 237 LINE",
"389 237 LINE",
"389 492 LINE",
"448 492 LINE",
"448 0 LINE",
"389 0 LINE",
"389 178 LINE",
"213 178 LINE",
"213 0 LINE",
"155 0 LINE",
"155 492 LINE"
);
}
);
width = 600;
}
);
unicode = 0048;
},
{
glyphname = I;
lastChange = "2023-06-27 06:13:08 +0000";
layers = (
{
layerId = "718666B1-ADB8-4383-879A-27DBFADAFA96";
paths = (
{
closed = 1;
nodes = (
"278 0 LINE",
"278 492 LINE",
"336 492 LINE",
"336 0 LINE"
);
}
);
width = 600;
}
);
unicode = 0049;
},
{
glyphname = J;
lastChange = "2023-06-27 06:13:24 +0000";
layers = (
{
layerId = "718666B1-ADB8-4383-879A-27DBFADAFA96";
paths = (
{
closed = 1;
nodes = (
"400 423 OFFCURVE",
"413 437 OFFCURVE",
"429 437 CURVE",
"446 437 OFFCURVE",
"459 423 OFFCURVE",
"459 407 CURVE",
"459 391 OFFCURVE",
"446 378 OFFCURVE",
"429 378 CURVE",
"413 378 OFFCURVE",
"400 391 OFFCURVE",
"400 407 CURVE"
);
},
{
closed = 1;
nodes = (
"289 491 OFFCURVE",
"289 492 OFFCURVE",
"291 492 CURVE SMOOTH",
"293 492 OFFCURVE",
"346 492 OFFCURVE",
"346 492 CURVE SMOOTH",
"346 492 OFFCURVE",
"347 493 OFFCURVE",
"347 491 CURVE SMOOTH",
"347 489 OFFCURVE",
"347 111 OFFCURVE",
"347 111 CURVE SMOOTH",
"347 111 OFFCURVE",
"348 82 OFFCURVE",
"340 64 CURVE SMOOTH",
"332 47 OFFCURVE",
"322 23 OFFCURVE",
"294 10 CURVE SMOOTH",
"265 -2 OFFCURVE",
"240 -1 OFFCURVE",
"223 1 CURVE SMOOTH",
"205 3 OFFCURVE",
"177 10 OFFCURVE",
"177 10 CURVE SMOOTH",
"177 10 OFFCURVE",
"175 10 OFFCURVE",
"175 13 CURVE SMOOTH",
"175 16 OFFCURVE",
"175 67 OFFCURVE",
"175 67 CURVE SMOOTH",
"175 67 OFFCURVE",
"175 69 OFFCURVE",
"177 68 CURVE SMOOTH",
"178 67 OFFCURVE",
"201 60 OFFCURVE",
"210 57 CURVE SMOOTH",
"220 54 OFFCURVE",
"247 51 OFFCURVE",
"260 57 CURVE SMOOTH",
"274 64 OFFCURVE",
"282 77 OFFCURVE",
"284 87 CURVE SMOOTH",
"286 96 OFFCURVE",
"289 107 OFFCURVE",
"289 120 CURVE SMOOTH",
"289 132 OFFCURVE",
"289 491 OFFCURVE",
"289 491 CURVE SMOOTH"
);
}
);
width = 600;
}
);
unicode = 004A;
},
{
glyphname = K;
lastChange = "2023-06-27 06:13:39 +0000";
layers = (
{
layerId = "718666B1-ADB8-4383-879A-27DBFADAFA96";
paths = (
{
closed = 1;
nodes = (
"144 491 OFFCURVE",
"144 492 OFFCURVE",
"146 492 CURVE SMOOTH",
"147 492 OFFCURVE",
"201 492 OFFCURVE",
"201 492 CURVE SMOOTH",
"201 492 OFFCURVE",
"203 493 OFFCURVE",
"203 490 CURVE SMOOTH",
"203 488 OFFCURVE",
"203 258 OFFCURVE",
"203 258 CURVE SMOOTH",
"203 258 OFFCURVE",
"206 252 OFFCURVE",
"210 256 CURVE SMOOTH",
"213 261 OFFCURVE",
"400 495 OFFCURVE",
"400 495 CURVE SMOOTH",
"400 495 OFFCURVE",
"401 496 OFFCURVE",
"403 496 CURVE SMOOTH",
"405 496 OFFCURVE",
"463 496 OFFCURVE",
"463 496 CURVE SMOOTH",
"463 496 OFFCURVE",
"465 496 OFFCURVE",
"465 494 CURVE SMOOTH",
"465 492 OFFCURVE",
"465 482 OFFCURVE",
"465 482 CURVE SMOOTH",
"465 482 OFFCURVE",
"464 481 OFFCURVE",
"463 480 CURVE SMOOTH",
"462 478 OFFCURVE",
"277 246 OFFCURVE",
"277 246 CURVE SMOOTH",
"277 246 OFFCURVE",
"274 245 OFFCURVE",
"276 242 CURVE SMOOTH",
"463 0 LINE",
"391 0 LINE SMOOTH",
"391 0 OFFCURVE",
"389 0 OFFCURVE",
"387 2 CURVE SMOOTH",
"236 197 LINE",
"205 168 LINE",
"205 168 OFFCURVE",
"203 167 OFFCURVE",
"203 163 CURVE SMOOTH",
"203 159 OFFCURVE",
"203 2 OFFCURVE",
"203 2 CURVE SMOOTH",
"203 2 OFFCURVE",
"203 0 OFFCURVE",
"201 0 CURVE SMOOTH",
"199 0 OFFCURVE",
"146 0 OFFCURVE",
"146 0 CURVE SMOOTH",
"146 0 OFFCURVE",
"144 0 OFFCURVE",
"144 2 CURVE SMOOTH",
"144 4 OFFCURVE",
"144 491 OFFCURVE",
"144 491 CURVE SMOOTH"
);
}
);
width = 600;
}
);
unicode = 004B;
},
{
glyphname = L;
lastChange = "2023-06-27 06:13:57 +0000";
layers = (
{
layerId = "718666B1-ADB8-4383-879A-27DBFADAFA96";
paths = (
{
closed = 1;
nodes = (
"247 494 OFFCURVE",
"247 495 OFFCURVE",
"248 495 CURVE SMOOTH",
"250 495 OFFCURVE",
"341 495 OFFCURVE",
"341 495 CURVE SMOOTH",
"341 495 OFFCURVE",
"344 496 OFFCURVE",
"344 493 CURVE SMOOTH",
"344 489 OFFCURVE",
"344 2 OFFCURVE",
"344 2 CURVE SMOOTH",
"344 2 OFFCURVE",
"344 0 OFFCURVE",
"344 0 CURVE SMOOTH",
"343 0 OFFCURVE",
"341 0 OFFCURVE",
"341 0 CURVE SMOOTH",
"287 0 LINE SMOOTH",
"287 0 OFFCURVE",
"286 0 OFFCURVE",
"286 0 CURVE",
"285 438 LINE",
"247 438 LINE",
"247 494 LINE"
);
}
);
width = 600;
}
);
unicode = 004C;
},
{
glyphname = M;
lastChange = "2023-06-27 17:35:54 +0000";
layers = (
{
layerId = "718666B1-ADB8-4383-879A-27DBFADAFA96";
paths = (
{
closed = 1;
nodes = (
"0.249 3.541 OFFCURVE",
"-0.266 0.086 OFFCURVE",
"3.198 0.073 CURVE SMOOTH",
"6.662 0.059 OFFCURVE",
"54.24 0.073 OFFCURVE",
"54.24 0.073 CURVE SMOOTH",
"54.24 0.073 OFFCURVE",
"59.063 -0.515 OFFCURVE",
"58.966 4.332 CURVE SMOOTH",
"58.868 9.179 OFFCURVE",
"59.016 354.453 OFFCURVE",
"59.016 354.453 CURVE SMOOTH",
"59.016 354.453 OFFCURVE",
"57.949 399.51 OFFCURVE",
"96.055 414.671 CURVE SMOOTH",
"134.16 429.831 OFFCURVE",
"170.422 401.967 OFFCURVE",
"177.792 379.501 CURVE SMOOTH",
"185.163 357.035 OFFCURVE",
"180.847 339.662 OFFCURVE",
"180.838 316.171 CURVE SMOOTH",
"180.829 292.681 OFFCURVE",
"180.704 3.948 OFFCURVE",
"180.704 3.948 CURVE SMOOTH",
"180.704 3.948 OFFCURVE",
"180.148 0.16 OFFCURVE",
"183.876 0.16 CURVE SMOOTH",
"187.604 0.16 OFFCURVE",
"236.398 0.16 OFFCURVE",
"236.398 0.16 CURVE SMOOTH",
"236.398 0.16 OFFCURVE",
"240.652 -0.902 OFFCURVE",
"240.652 5.091 CURVE SMOOTH",
"240.652 11.083 OFFCURVE",
"240.652 351.825 OFFCURVE",
"240.652 351.825 CURVE SMOOTH",
"240.652 351.825 OFFCURVE",
"242.568 406.41 OFFCURVE",
"300.204 420.154 CURVE SMOOTH",
"357.839 433.897 OFFCURVE",
"415.547 401.448 OFFCURVE",
"415.404 358.974 CURVE SMOOTH",
"415.26 316.5 OFFCURVE",
"415.404 3.95 OFFCURVE",
"415.404 3.95 CURVE SMOOTH",
"415.404 3.95 OFFCURVE",
"415.191 0.181 OFFCURVE",
"419.093 0.181 CURVE SMOOTH",
"422.996 0.181 OFFCURVE",
"470.41 0.181 OFFCURVE",
"470.41 0.181 CURVE SMOOTH",
"470.41 0.181 OFFCURVE",
"474.377 -0.341 OFFCURVE",
"474.377 3.639 CURVE SMOOTH",
"474.377 7.619 OFFCURVE",
"474.377 357.437 OFFCURVE",
"474.377 357.437 CURVE SMOOTH",
"474.377 357.437 OFFCURVE",
"474.976 401.834 OFFCURVE",
"515.091 417.54 CURVE SMOOTH",
"555.205 433.246 OFFCURVE",
"599.883 400.108 OFFCURVE",
"599.883 366.652 CURVE SMOOTH",
"599.883 333.196 OFFCURVE",
"599.971 4.253 OFFCURVE",
"599.971 4.253 CURVE SMOOTH",
"599.971 4.253 OFFCURVE",
"599.341 0.32 OFFCURVE",
"603.159 0.32 CURVE SMOOTH",
"606.977 0.32 OFFCURVE",
"654.989 0.017 OFFCURVE",
"654.989 0.017 CURVE SMOOTH",
"654.989 0.017 OFFCURVE",
"658.599 -0.491 OFFCURVE",
"658.599 4.054 CURVE SMOOTH",
"658.599 8.599 OFFCURVE",
"658.599 376.67 OFFCURVE",
"658.599 376.67 CURVE SMOOTH",
"658.599 376.67 OFFCURVE",
"667.788 433.996 OFFCURVE",
"614.584 468.432 CURVE SMOOTH",
"561.38 502.867 OFFCURVE",
"517.172 491.477 OFFCURVE",
"491.953 477.702 CURVE SMOOTH",
"466.734 463.927 OFFCURVE",
"453.237 447.909 OFFCURVE",
"453.237 447.909 CURVE SMOOTH",
"453.237 447.909 OFFCURVE",
"450.309 443.652 OFFCURVE",
"446.431 447.53 CURVE SMOOTH",
"442.553 451.409 OFFCURVE",
"414.405 481.024 OFFCURVE",
"360.721 489.101 CURVE SMOOTH",
"307.036 497.179 OFFCURVE",
"264.011 479.466 OFFCURVE",
"241.351 462.477 CURVE SMOOTH",
"218.692 445.488 OFFCURVE",
"220.708 446.104 OFFCURVE",
"220.708 446.104 CURVE SMOOTH",
"220.708 446.104 OFFCURVE",
"218.065 443.591 OFFCURVE",
"214.066 448.513 CURVE SMOOTH",
"210.067 453.435 OFFCURVE",
"190.344 474.49 OFFCURVE",
"159.871 483.298 CURVE SMOOTH",
"129.398 492.106 OFFCURVE",
"104.801 491.501 OFFCURVE",
"69.38 472.983 CURVE SMOOTH",
"33.958 454.466 OFFCURVE",
"21.014 429.846 OFFCURVE",
"19.042 426.556 CURVE SMOOTH",
"17.071 423.266 OFFCURVE",
"6.309 402.135 OFFCURVE",
"3.768 388.113 CURVE SMOOTH",
"1.228 374.09 OFFCURVE",
"0.332 367.511 OFFCURVE",
"0.336 362.041 CURVE SMOOTH",
"0.34 356.572 OFFCURVE",
"0.249 3.541 OFFCURVE",
"0.249 3.541 CURVE SMOOTH"
);
}
);
width = 600;
}
);
unicode = 004D;
},
{
glyphname = N;
lastChange = "2023-06-27 06:14:29 +0000";
layers = (
{
layerId = "718666B1-ADB8-4383-879A-27DBFADAFA96";
paths = (
{
closed = 1;
nodes = (
"131 487 OFFCURVE",
"130 492 OFFCURVE",
"136 492 CURVE SMOOTH",
"141 492 OFFCURVE",
"185 492 OFFCURVE",
"185 492 CURVE SMOOTH",
"185 492 OFFCURVE",
"190 493 OFFCURVE",
"190 487 CURVE SMOOTH",
"190 482 OFFCURVE",
"190 447 OFFCURVE",
"190 447 CURVE SMOOTH",
"190 447 OFFCURVE",
"220 470 OFFCURVE",
"251 481 CURVE SMOOTH",
"292 495 OFFCURVE",
"314 496 OFFCURVE",
"347 483 CURVE SMOOTH",
"380 471 OFFCURVE",
"418 448 OFFCURVE",
"418 448 CURVE",
"418 487 LINE",
"418 487 OFFCURVE",
"417 492 OFFCURVE",
"425 492 CURVE SMOOTH",
"432 492 OFFCURVE",
"472 492 OFFCURVE",
"472 492 CURVE SMOOTH",
"472 492 OFFCURVE",
"476 492 OFFCURVE",
"476 488 CURVE SMOOTH",
"476 483 OFFCURVE",
"476 2 OFFCURVE",
"476 2 CURVE SMOOTH",
"476 2 OFFCURVE",
"477 0 OFFCURVE",
"475 0 CURVE SMOOTH",
"473 0 OFFCURVE",
"419 0 OFFCURVE",
"419 0 CURVE SMOOTH",
"419 0 OFFCURVE",
"417 0 OFFCURVE",
"417 3 CURVE SMOOTH",
"417 6 OFFCURVE",
"417 308 OFFCURVE",
"417 308 CURVE",
"416 332 LINE",
"416 332 OFFCURVE",
"403 382 OFFCURVE",
"387 396 CURVE SMOOTH",
"370 410 OFFCURVE",
"352 426 OFFCURVE",
"332 428 CURVE SMOOTH",
"312 431 OFFCURVE",
"276 434 OFFCURVE",
"254 422 CURVE SMOOTH",
"233 410 OFFCURVE",
"209 393 OFFCURVE",
"201 370 CURVE SMOOTH",
"193 347 OFFCURVE",
"190 335 OFFCURVE",
"190 326 CURVE SMOOTH",
"190 318 OFFCURVE",
"190 8 OFFCURVE",
"190 8 CURVE",
"190 2 LINE",
"190 2 OFFCURVE",
"190 0 OFFCURVE",
"185 0 CURVE SMOOTH",
"180 0 OFFCURVE",
"133 0 OFFCURVE",
"133 0 CURVE SMOOTH",
"133 0 OFFCURVE",
"131 0 OFFCURVE",
"131 4 CURVE SMOOTH",
"131 8 OFFCURVE",
"131 487 OFFCURVE",
"131 487 CURVE SMOOTH"
);
}
);
width = 600;
}
);
unicode = 004E;
},
{
glyphname = O;
lastChange = "2023-06-27 06:14:43 +0000";
layers = (
{
layerId = "718666B1-ADB8-4383-879A-27DBFADAFA96";
paths = (
{
closed = 1;
nodes = (
"177 492 OFFCURVE",
"74 382 OFFCURVE",
"74 246 CURVE",
"74 110 OFFCURVE",
"177 0 OFFCURVE",
"303 0 CURVE",
"430 0 OFFCURVE",
"532 110 OFFCURVE",
"532 246 CURVE",
"532 382 OFFCURVE",
"430 492 OFFCURVE",
"303 492 CURVE"
);
},
{
closed = 1;
nodes = (
"212 59 OFFCURVE",
"134 139 OFFCURVE",
"134 242 CURVE SMOOTH",
"134 345 OFFCURVE",
"208 432 OFFCURVE",
"304 432 CURVE SMOOTH",
"399 432 OFFCURVE",
"474 345 OFFCURVE",
"474 242 CURVE SMOOTH",
"474 139 OFFCURVE",
"402 59 OFFCURVE",
"307 59 CURVE SMOOTH"
);
}
);
width = 600;
}
);
unicode = 004F;
},
{
glyphname = P;
lastChange = "2023-06-27 06:14:58 +0000";
layers = (
{
layerId = "718666B1-ADB8-4383-879A-27DBFADAFA96";
paths = (
{
closed = 1;
nodes = (
"467 412 OFFCURVE",
"442 445 OFFCURVE",
"405 467 CURVE",
"369 490 OFFCURVE",
"330 492 OFFCURVE",
"330 492 CURVE",
"330 492 OFFCURVE",
"134 492 OFFCURVE",
"131 492 CURVE",
"129 492 OFFCURVE",
"129 490 OFFCURVE",
"129 490 CURVE",
"129 487 LINE",
"129 487 OFFCURVE",
"129 5 OFFCURVE",
"129 2 CURVE",
"129 0 OFFCURVE",
"131 0 OFFCURVE",
"131 0 CURVE",
"131 0 OFFCURVE",
"181 0 OFFCURVE",
"184 0 CURVE",
"188 0 OFFCURVE",
"188 3 OFFCURVE",
"188 3 CURVE",
"188 3 OFFCURVE",
"188 140 OFFCURVE",
"188 143 CURVE",
"188 146 OFFCURVE",
"190 146 OFFCURVE",
"190 146 CURVE",
"190 146 OFFCURVE",
"318 145 OFFCURVE",
"329 146 CURVE",
"337 147 OFFCURVE",
"374 152 OFFCURVE",
"388 156 CURVE",
"440 171 OFFCURVE",
"456 200 OFFCURVE",
"471 233 CURVE",
"487 265 OFFCURVE",
"489 322 OFFCURVE",
"478 367 CURVE"
);
},
{
closed = 1;
nodes = (
"408 230 OFFCURVE",
"381 205 OFFCURVE",
"330 205 CURVE SMOOTH",
"276 205 OFFCURVE",
"190 205 OFFCURVE",
"190 205 CURVE SMOOTH",
"190 205 OFFCURVE",
"188 204 OFFCURVE",
"188 206 CURVE SMOOTH",
"188 209 OFFCURVE",
"188 431 OFFCURVE",
"188 431 CURVE SMOOTH",
"188 431 OFFCURVE",
"187 433 OFFCURVE",
"190 433 CURVE SMOOTH",
"192 433 OFFCURVE",
"331 433 OFFCURVE",
"331 433 CURVE SMOOTH",
"331 433 OFFCURVE",
"355 434 OFFCURVE",
"383 416 CURVE SMOOTH",
"410 398 OFFCURVE",
"416 376 OFFCURVE",
"420 361 CURVE SMOOTH",
"423 346 OFFCURVE",
"430 299 OFFCURVE",
"419 265 CURVE SMOOTH"
);
}
);
width = 600;
}
);
unicode = 0050;
},
{
glyphname = Q;
lastChange = "2023-06-27 06:15:16 +0000";
layers = (
{
layerId = "718666B1-ADB8-4383-879A-27DBFADAFA96";
paths = (
{
closed = 1;
nodes = (
"441 376 LINE",
"440 403 OFFCURVE",
"425 431 OFFCURVE",
"409 448 CURVE",
"392 464 OFFCURVE",
"353 495 OFFCURVE",
"287 492 CURVE",
"222 488 OFFCURVE",
"189 447 OFFCURVE",
"189 447 CURVE",
"156 412 OFFCURVE",
"155 373 OFFCURVE",
"155 373 CURVE",
"155 219 LINE",
"155 177 OFFCURVE",
"182 144 OFFCURVE",
"182 144 CURVE",
"192 127 OFFCURVE",
"220 102 OFFCURVE",
"260 93 CURVE",
"300 83 OFFCURVE",
"333 90 OFFCURVE",
"357 97 CURVE",
"380 105 OFFCURVE",
"380 116 OFFCURVE",
"382 116 CURVE",
"383 116 OFFCURVE",
"383 115 OFFCURVE",
"383 115 CURVE",
"383 115 OFFCURVE",
"383 3 OFFCURVE",
"383 1 CURVE",
"383 0 OFFCURVE",
"384 0 OFFCURVE",
"384 0 CURVE",
"384 0 OFFCURVE",
"438 0 OFFCURVE",
"440 0 CURVE",
"441 0 OFFCURVE",
"441 2 OFFCURVE",
"441 2 CURVE"
);
},
{
closed = 1;
nodes = (
"381 184 OFFCURVE",
"374 145 OFFCURVE",
"298 146 CURVE SMOOTH",
"222 146 OFFCURVE",
"214 195 OFFCURVE",
"214 219 CURVE SMOOTH",
"214 244 OFFCURVE",
"214 370 OFFCURVE",
"214 370 CURVE SMOOTH",
"214 370 OFFCURVE",
"208 433 OFFCURVE",
"300 433 CURVE SMOOTH",
"392 433 OFFCURVE",
"382 371 OFFCURVE",
"382 371 CURVE SMOOTH",
"382 371 OFFCURVE",
"384 208 OFFCURVE",
"382 193 CURVE SMOOTH"
);
}
);
width = 600;
}
);
unicode = 0051;
},
{
glyphname = R;
lastChange = "2023-06-27 06:15:28 +0000";
layers = (
{
layerId = "718666B1-ADB8-4383-879A-27DBFADAFA96";
paths = (
{
closed = 1;
nodes = (
"466 131 OFFCURVE",
"467 153 OFFCURVE",
"450 184 CURVE",
"434 216 OFFCURVE",
"410 224 OFFCURVE",
"409 225 CURVE",
"407 225 OFFCURVE",
"404 225 OFFCURVE",
"409 230 CURVE",
"417 237 OFFCURVE",
"431 250 OFFCURVE",
"444 271 CURVE",
"464 304 OFFCURVE",
"467 355 OFFCURVE",
"464 380 CURVE",
"461 405 OFFCURVE",
"446 441 OFFCURVE",
"427 459 CURVE",
"419 468 OFFCURVE",
"390 492 OFFCURVE",
"353 492 CURVE",
"304 492 OFFCURVE",
"157 492 OFFCURVE",
"146 492 CURVE",
"137 492 OFFCURVE",
"137 489 OFFCURVE",
"137 483 CURVE",
"137 365 OFFCURVE",
"137 21 OFFCURVE",
"137 10 CURVE",
"137 -1 OFFCURVE",
"147 0 OFFCURVE",
"147 0 CURVE",
"147 0 OFFCURVE",
"179 0 OFFCURVE",
"189 0 CURVE",
"198 0 OFFCURVE",
"197 8 OFFCURVE",
"197 8 CURVE",
"197 8 OFFCURVE",
"197 194 OFFCURVE",
"197 200 CURVE",
"197 206 OFFCURVE",
"202 206 OFFCURVE",
"202 206 CURVE",
"202 206 OFFCURVE",
"302 206 OFFCURVE",
"308 206 CURVE",
"313 206 OFFCURVE",
"330 205 OFFCURVE",
"346 200 CURVE",
"362 195 OFFCURVE",
"380 185 OFFCURVE",
"393 166 CURVE",
"406 147 OFFCURVE",
"408 101 OFFCURVE",
"408 101 CURVE",
"408 8 LINE",
"408 0 OFFCURVE",
"414 0 OFFCURVE",
"414 0 CURVE",
"414 0 OFFCURVE",
"451 0 OFFCURVE",
"459 0 CURVE",
"468 0 OFFCURVE",
"467 7 OFFCURVE",
"467 7 CURVE",
"467 7 OFFCURVE",
"467 81 OFFCURVE",
"467 106 CURVE"
);
},
{
closed = 1;
nodes = (
"264 265 OFFCURVE",
"203 265 OFFCURVE",
"203 265 CURVE SMOOTH",
"203 265 OFFCURVE",
"197 263 OFFCURVE",
"197 271 CURVE SMOOTH",
"197 279 OFFCURVE",
"197 427 OFFCURVE",
"197 427 CURVE SMOOTH",
"197 427 OFFCURVE",
"197 434 OFFCURVE",
"203 433 CURVE",
"203 433 OFFCURVE",
"315 433 OFFCURVE",
"353 433 CURVE SMOOTH",
"359 433 OFFCURVE",
"383 427 OFFCURVE",
"398 398 CURVE SMOOTH",
"414 368 OFFCURVE",
"407 314 OFFCURVE",
"393 301 CURVE SMOOTH",
"380 288 OFFCURVE",
"374 265 OFFCURVE",
"319 265 CURVE SMOOTH"
);
}
);
width = 600;
}
);
unicode = 0052;
},
{
glyphname = S;
lastChange = "2023-06-27 06:15:45 +0000";
layers = (
{
layerId = "718666B1-ADB8-4383-879A-27DBFADAFA96";
paths = (
{
closed = 1;
nodes = (
"422 260 OFFCURVE",
"381 266 OFFCURVE",
"348 271 CURVE SMOOTH",
"254 285 LINE SMOOTH",
"238 287 OFFCURVE",
"221 290 OFFCURVE",
"208 300 CURVE SMOOTH",
"184 317 OFFCURVE",
"180 350 OFFCURVE",
"186 373 CURVE SMOOTH",
"194 400 OFFCURVE",
"216 416 OFFCURVE",
"255 422 CURVE SMOOTH",
"320 433 OFFCURVE",
"389 422 OFFCURVE",
"447 391 CURVE SMOOTH",
"455 387 OFFCURVE",
"462 382 OFFCURVE",
"468 375 CURVE",
"473 368 LINE",
"473 368 OFFCURVE",
"473 428 OFFCURVE",
"473 436 CURVE SMOOTH",
"473 440 OFFCURVE",
"471 442 OFFCURVE",
"438 454 CURVE SMOOTH",
"435 455 LINE SMOOTH",
"419 461 OFFCURVE",
"402 466 OFFCURVE",
"384 469 CURVE SMOOTH",
"355 474 OFFCURVE",
"322 476 OFFCURVE",
"279 474 CURVE SMOOTH",
"229 472 OFFCURVE",
"166 464 OFFCURVE",
"134 414 CURVE SMOOTH",
"119 391 OFFCURVE",
"117 362 OFFCURVE",
"117 334 CURVE SMOOTH",
"117 303 OFFCURVE",
"131 273 OFFCURVE",
"153 256 CURVE SMOOTH",
"169 243 OFFCURVE",
"188 237 OFFCURVE",
"207 232 CURVE SMOOTH",
"237 224 OFFCURVE",
"269 219 OFFCURVE",
"305 215 CURVE SMOOTH",
"314 214 LINE SMOOTH",
"332 212 OFFCURVE",
"351 210 OFFCURVE",
"369 204 CURVE SMOOTH",
"382 200 OFFCURVE",
"405 189 OFFCURVE",
"416 166 CURVE SMOOTH",
"431 132 OFFCURVE",
"415 86 OFFCURVE",
"381 67 CURVE SMOOTH",
"361 56 OFFCURVE",
"337 55 OFFCURVE",
"316 55 CURVE SMOOTH",
"233 56 OFFCURVE",
"168 75 OFFCURVE",
"124 112 CURVE SMOOTH",
"117 118 LINE",
"117 52 LINE",
"130 46 LINE SMOOTH",
"163 30 OFFCURVE",
"194 16 OFFCURVE",
"230 9 CURVE SMOOTH",
"260 3 OFFCURVE",
"286 0 OFFCURVE",
"310 0 CURVE SMOOTH",
"329 0 OFFCURVE",
"346 2 OFFCURVE",
"363 5 CURVE SMOOTH",
"396 12 OFFCURVE",
"424 26 OFFCURVE",
"445 45 CURVE SMOOTH",
"466 64 OFFCURVE",
"481 93 OFFCURVE",
"485 125 CURVE SMOOTH",
"492 169 OFFCURVE",
"479 210 OFFCURVE",
"451 234 CURVE SMOOTH"
);
}
);
width = 600;
}
);
unicode = 0053;
},
{
glyphname = T;
lastChange = "2023-06-27 06:15:57 +0000";
layers = (
{
layerId = "718666B1-ADB8-4383-879A-27DBFADAFA96";
paths = (
{
closed = 1;
nodes = (
"465 492 LINE",
"465 492 OFFCURVE",
"488 491 OFFCURVE",
"488 473 CURVE SMOOTH",
"488 454 OFFCURVE",
"488 450 OFFCURVE",
"488 450 CURVE SMOOTH",
"488 450 OFFCURVE",
"489 434 OFFCURVE",
"467 434 CURVE SMOOTH",
"445 434 OFFCURVE",
"373 434 OFFCURVE",
"373 434 CURVE SMOOTH",
"373 434 OFFCURVE",
"334 434 OFFCURVE",
"334 391 CURVE SMOOTH",
"334 349 OFFCURVE",
"334 23 OFFCURVE",
"334 23 CURVE SMOOTH",
"334 23 OFFCURVE",
"335 0 OFFCURVE",
"318 0 CURVE SMOOTH",
"301 0 OFFCURVE",
"293 0 OFFCURVE",
"293 0 CURVE SMOOTH",
"293 0 OFFCURVE",
"275 -3 OFFCURVE",
"275 16 CURVE SMOOTH",
"275 35 OFFCURVE",
"275 386 OFFCURVE",
"275 386 CURVE SMOOTH",
"275 386 OFFCURVE",
"275 407 OFFCURVE",
"266 418 CURVE SMOOTH",
"258 429 OFFCURVE",
"247 434 OFFCURVE",
"228 434 CURVE SMOOTH",
"208 434 OFFCURVE",
"126 434 OFFCURVE",
"126 434 CURVE SMOOTH",
"126 434 OFFCURVE",
"110 432 OFFCURVE",
"110 451 CURVE SMOOTH",
"110 469 OFFCURVE",
"110 474 OFFCURVE",
"110 474 CURVE SMOOTH",
"110 474 OFFCURVE",
"108 492 OFFCURVE",
"131 492 CURVE SMOOTH"
);
}
);
width = 600;
}
);
unicode = 0054;
},
{
glyphname = U;
lastChange = "2023-06-27 06:16:09 +0000";
layers = (
{
layerId = "718666B1-ADB8-4383-879A-27DBFADAFA96";
paths = (
{
closed = 1;
nodes = (
"91 492 LINE",
"91 492 OFFCURVE",
"99 494 OFFCURVE",
"99 484 CURVE SMOOTH",
"99 475 OFFCURVE",
"99 223 OFFCURVE",
"99 223 CURVE SMOOTH",
"99 223 OFFCURVE",
"102 149 OFFCURVE",
"149 106 CURVE SMOOTH",
"192 67 OFFCURVE",
"276 60 OFFCURVE",
"312 60 CURVE SMOOTH",
"365 60 OFFCURVE",
"437 80 OFFCURVE",
"476 127 CURVE SMOOTH",
"499 155 OFFCURVE",
"505 204 OFFCURVE",
"505 230 CURVE SMOOTH",
"505 302 OFFCURVE",
"505 486 OFFCURVE",
"505 486 CURVE SMOOTH",
"505 486 OFFCURVE",
"504 492 OFFCURVE",
"512 492 CURVE SMOOTH",
"557 492 LINE",
"557 492 OFFCURVE",
"563 493 OFFCURVE",
"563 486 CURVE SMOOTH",
"563 478 OFFCURVE",
"563 227 OFFCURVE",
"563 227 CURVE SMOOTH",
"563 227 OFFCURVE",
"561 138 OFFCURVE",
"550 120 CURVE SMOOTH",
"539 102 OFFCURVE",
"515 48 OFFCURVE",
"443 22 CURVE SMOOTH",
"370 -4 OFFCURVE",
"274 -5 OFFCURVE",
"204 9 CURVE SMOOTH",
"134 23 OFFCURVE",
"69 71 OFFCURVE",
"53 129 CURVE SMOOTH",
"37 187 OFFCURVE",
"41 247 OFFCURVE",
"41 260 CURVE SMOOTH",
"41 272 OFFCURVE",
"41 487 OFFCURVE",
"41 487 CURVE SMOOTH",
"41 487 OFFCURVE",
"40 492 OFFCURVE",
"46 492 CURVE SMOOTH"
);
}
);
width = 600;
}
);
unicode = 0055;
},
{
glyphname = V;
lastChange = "2023-06-27 06:16:21 +0000";
layers = (
{
layerId = "718666B1-ADB8-4383-879A-27DBFADAFA96";
paths = (
{
closed = 1;
nodes = (
"198 492 LINE",
"198 492 OFFCURVE",
"204 491 OFFCURVE",
"202 487 CURVE SMOOTH",
"201 484 OFFCURVE",
"193 464 OFFCURVE",
"196 454 CURVE SMOOTH",
"198 443 OFFCURVE",
"291 168 OFFCURVE",
"291 168 CURVE",
"294 158 LINE",
"294 158 OFFCURVE",
"299 146 OFFCURVE",
"303 158 CURVE SMOOTH",
"307 169 OFFCURVE",
"398 446 OFFCURVE",
"398 446 CURVE SMOOTH",
"398 446 OFFCURVE",
"401 462 OFFCURVE",
"399 470 CURVE SMOOTH",
"396 478 OFFCURVE",
"393 486 OFFCURVE",
"393 486 CURVE SMOOTH",
"393 486 OFFCURVE",
"390 492 OFFCURVE",
"395 492 CURVE SMOOTH",
"401 492 OFFCURVE",
"470 492 OFFCURVE",
"470 492 CURVE SMOOTH",
"470 492 OFFCURVE",
"475 492 OFFCURVE",
"474 486 CURVE SMOOTH",
"473 480 OFFCURVE",
"418 316 OFFCURVE",
"418 316 CURVE",
"313 4 LINE",
"313 4 OFFCURVE",
"314 0 OFFCURVE",
"309 0 CURVE SMOOTH",
"305 0 OFFCURVE",
"290 0 OFFCURVE",
"290 0 CURVE SMOOTH",
"290 0 OFFCURVE",
"287 0 OFFCURVE",
"287 3 CURVE SMOOTH",
"121 483 LINE",
"121 483 OFFCURVE",
"118 492 OFFCURVE",
"124 492 CURVE SMOOTH"
);
}
);
width = 600;
}
);
unicode = 0056;
},
{
glyphname = W;
lastChange = "2023-06-27 06:41:27 +0000";
layers = (
{
layerId = "718666B1-ADB8-4383-879A-27DBFADAFA96";
paths = (
{
closed = 1;
nodes = (
"575 455 OFFCURVE",
"520.962 118.154 OFFCURVE",
"515.156 93.19 CURVE SMOOTH",
"513.392 85.606 OFFCURVE",
"508.706 65.458 OFFCURVE",
"489.833 65.458 CURVE SMOOTH",
"480.503 65.458 OFFCURVE",
"468.689 70.408 OFFCURVE",
"465.063 93.83 CURVE",
"437.196 219.316 OFFCURVE",
"397 458 OFFCURVE",
"385 505 CURVE",
"295 505 LINE",
"260 505 LINE",
"246 448 OFFCURVE",
"196.201 125.041 OFFCURVE",
"190.707 98.642 CURVE SMOOTH",
"185.675 74.465 OFFCURVE",
"173.33 69.39 OFFCURVE",
"163.859 69.39 CURVE SMOOTH",
"154.994 69.39 OFFCURVE",
"142.864 74.063 OFFCURVE",
"135.424 96.321 CURVE SMOOTH",
"134.95 97.74 LINE",
"134.687 99.211 LINE SMOOTH",
"125 156 OFFCURVE",
"75 465 OFFCURVE",
"70 505 CURVE",
"0 505 LINE",
"11 453 OFFCURVE",
"82.972 57.97 OFFCURVE",
"94.957 0 CURVE",
"95.747 0 OFFCURVE",
"96.624 0 OFFCURVE",
"97.585 0 CURVE SMOOTH",
"123.747 0 OFFCURVE",
"211.048 0.04 OFFCURVE",
"231.058 0.044 CURVE",
"244.52 67.149 OFFCURVE",
"294 369 OFFCURVE",
"300 385 CURVE SMOOTH",
"306 405 OFFCURVE",
"318 408 OFFCURVE",
"325 410 CURVE SMOOTH",
"336 408 OFFCURVE",
"346 400 OFFCURVE",
"355 385 CURVE",
"355 385 LINE SMOOTH",
"377 265 OFFCURVE",
"414.897 33.543 OFFCURVE",
"422.739 0.029 CURVE",
"560.823 0.029 LINE",
"594.789 158.03 OFFCURVE",
"644 440 OFFCURVE",
"660 505 CURVE",
"585 505 LINE"
);
}
);
width = 655;
}
);
unicode = 0057;
},
{
glyphname = X;
lastChange = "2023-06-27 06:16:47 +0000";
layers = (
{
layerId = "718666B1-ADB8-4383-879A-27DBFADAFA96";
paths = (
{
closed = 1;
nodes = (
"490 36 OFFCURVE",
"348 216 OFFCURVE",
"344 222 CURVE SMOOTH",
"338 230 OFFCURVE",
"340 238 OFFCURVE",
"344 243 CURVE",
"399 313 OFFCURVE",
"500 445 OFFCURVE",
"507 454 CURVE",
"507 458 OFFCURVE",
"507 465 OFFCURVE",
"507 471 CURVE",
"444 471 LINE SMOOTH",
"444 471 OFFCURVE",
"443 471 OFFCURVE",
"443 471 CURVE",
"399 414 OFFCURVE",
"318 307 OFFCURVE",
"314 302 CURVE SMOOTH",
"309 295 OFFCURVE",
"303 295 OFFCURVE",
"300 295 CURVE SMOOTH",
"294 295 OFFCURVE",
"289 298 OFFCURVE",
"287 302 CURVE",
"273 319 OFFCURVE",
"164 457 OFFCURVE",
"153 471 CURVE",
"152 471 LINE",
"152 471 LINE",
"108 471 LINE",
"92 471 LINE",
"92 467 OFFCURVE",
"92 461 OFFCURVE",
"92 457 CURVE SMOOTH",
"92 455 OFFCURVE",
"92 453 OFFCURVE",
"92 453 CURVE",
"252 249 LINE SMOOTH",
"256 244 OFFCURVE",
"259 239 OFFCURVE",
"259 232 CURVE SMOOTH",
"259 225 OFFCURVE",
"254 219 OFFCURVE",
"252 217 CURVE",
"242 204 OFFCURVE",
"96 15 OFFCURVE",
"92 9 CURVE",
"92 0 LINE",
"161 0 LINE",
"209 62 OFFCURVE",
"281 155 OFFCURVE",
"286 162 CURVE",
"291 170 OFFCURVE",
"296 171 OFFCURVE",
"300 171 CURVE SMOOTH",
"301 171 LINE",
"301 171 LINE",
"302 171 LINE SMOOTH",
"309 171 OFFCURVE",
"314 165 OFFCURVE",
"316 162 CURVE",
"331 142 OFFCURVE",
"438 5 OFFCURVE",
"442 0 CURVE",
"444 0 OFFCURVE",
"446 0 OFFCURVE",
"447 0 CURVE",
"453 0 OFFCURVE",
"490 0 OFFCURVE",
"507 1 CURVE",
"507 4 OFFCURVE",
"507 9 OFFCURVE",
"507 12 CURVE SMOOTH",
"507 13 OFFCURVE",
"507 14 OFFCURVE",
"507 14 CURVE",
"506 15 LINE SMOOTH"
);
}
);
width = 600;
}
);
unicode = 0058;
},
{
glyphname = Y;
lastChange = "2023-06-27 06:16:58 +0000";
layers = (
{
layerId = "718666B1-ADB8-4383-879A-27DBFADAFA96";
paths = (
{
closed = 1;
nodes = (
"129 492 LINE",
"129 492 OFFCURVE",
"135 493 OFFCURVE",
"138 487 CURVE SMOOTH",
"142 481 OFFCURVE",
"299 209 OFFCURVE",
"299 209 CURVE",
"461 489 LINE",
"461 489 OFFCURVE",
"463 492 OFFCURVE",
"467 492 CURVE SMOOTH",
"531 492 LINE",
"531 492 OFFCURVE",
"329 145 OFFCURVE",
"329 142 CURVE SMOOTH",
"329 133 OFFCURVE",
"329 6 OFFCURVE",
"329 6 CURVE SMOOTH",
"329 6 OFFCURVE",
"329 0 OFFCURVE",
"323 0 CURVE SMOOTH",
"318 0 OFFCURVE",
"275 0 OFFCURVE",
"275 0 CURVE SMOOTH",
"275 0 OFFCURVE",
"269 0 OFFCURVE",
"269 6 CURVE SMOOTH",
"269 12 OFFCURVE",
"270 143 OFFCURVE",
"270 143 CURVE",
"68 492 LINE"
);
}
);
width = 600;
}
);
unicode = 0059;
},
{
glyphname = Z;
lastChange = "2023-06-27 06:17:09 +0000";
layers = (
{
layerId = "718666B1-ADB8-4383-879A-27DBFADAFA96";
paths = (
{
closed = 1;
nodes = (
"93 488 OFFCURVE",
"92 492 OFFCURVE",
"97 492 CURVE SMOOTH",
"101 492 OFFCURVE",
"480 492 OFFCURVE",
"480 492 CURVE SMOOTH",
"480 492 OFFCURVE",
"486 491 OFFCURVE",
"482 486 CURVE SMOOTH",
"479 480 OFFCURVE",
"200 65 OFFCURVE",
"200 65 CURVE SMOOTH",
"200 65 OFFCURVE",
"196 60 OFFCURVE",
"203 60 CURVE SMOOTH",
"209 60 OFFCURVE",
"501 60 OFFCURVE",
"501 60 CURVE SMOOTH",
"501 60 OFFCURVE",
"507 61 OFFCURVE",
"507 54 CURVE SMOOTH",
"507 48 OFFCURVE",
"507 6 OFFCURVE",
"507 6 CURVE SMOOTH",
"507 6 OFFCURVE",
"508 0 OFFCURVE",
"501 0 CURVE SMOOTH",
"93 0 LINE SMOOTH",
"93 0 OFFCURVE",
"87 0 OFFCURVE",
"91 7 CURVE SMOOTH",
"95 14 OFFCURVE",
"368 422 OFFCURVE",
"368 422 CURVE SMOOTH",
"368 422 OFFCURVE",
"370 428 OFFCURVE",
"369 429 CURVE SMOOTH",
"369 431 OFFCURVE",
"368 433 OFFCURVE",
"364 432 CURVE SMOOTH",
"359 432 OFFCURVE",
"104 432 OFFCURVE",
"104 432 CURVE SMOOTH",
"104 432 OFFCURVE",
"97 432 OFFCURVE",
"96 432 CURVE SMOOTH",
"94 432 OFFCURVE",
"93 432 OFFCURVE",
"93 434 CURVE SMOOTH",
"93 437 OFFCURVE",
"93 488 OFFCURVE",
"93 488 CURVE SMOOTH"
);
}
);
width = 600;
}
);
unicode = 005A;
},
{
glyphname = a;
lastChange = "2023-06-27 06:02:04 +0000";
layers = (
{
layerId = "718666B1-ADB8-4383-879A-27DBFADAFA96";
paths = (
{
closed = 1;
nodes = (
"464 53 OFFCURVE",
"382 484 OFFCURVE",
"382 484 CURVE",
"382 484 OFFCURVE",
"379 492 OFFCURVE",
"371 492 CURVE",
"362 492 OFFCURVE",
"331 492 OFFCURVE",
"331 492 CURVE",
"331 492 OFFCURVE",
"320 494 OFFCURVE",
"315 481 CURVE",
"311 471 OFFCURVE",
"304 461 OFFCURVE",
"299 451 CURVE",
"288 432 OFFCURVE",
"278 414 OFFCURVE",
"268 395 CURVE",
"247 356 OFFCURVE",
"226 316 OFFCURVE",
"207 276 CURVE",
"168 197 OFFCURVE",
"133 117 OFFCURVE",
"103 34 CURVE",
"100 27 OFFCURVE",
"97 19 OFFCURVE",
"94 11 CURVE",
"94 11 OFFCURVE",
"93 8 OFFCURVE",
"95 5 CURVE",
"96 2 OFFCURVE",
"99 0 OFFCURVE",
"103 0 CURVE",
"107 0 OFFCURVE",
"148 0 OFFCURVE",
"148 0 CURVE",
"148 0 OFFCURVE",
"153 -1 OFFCURVE",
"156 6 CURVE",
"159 13 OFFCURVE",
"188 90 OFFCURVE",
"188 90 CURVE",
"188 90 OFFCURVE",
"189 94 OFFCURVE",
"194 94 CURVE",
"198 94 OFFCURVE",
"389 94 OFFCURVE",
"389 94 CURVE",
"389 94 OFFCURVE",
"395 94 OFFCURVE",
"397 89 CURVE",
"399 85 OFFCURVE",
"413 9 OFFCURVE",
"413 9 CURVE",
"413 9 OFFCURVE",
"414 0 OFFCURVE",
"423 0 CURVE",
"432 0 OFFCURVE",
"460 0 OFFCURVE",
"460 0 CURVE",
"460 0 OFFCURVE",
"469 -1 OFFCURVE",
"471 10 CURVE",
"473 21 OFFCURVE",
"467 40 OFFCURVE",
"466 46 CURVE"
);
},
{
closed = 1;
nodes = (
"379 153 OFFCURVE",
"238 153 OFFCURVE",
"229 153 CURVE SMOOTH",
"220 153 OFFCURVE",
"223 160 OFFCURVE",
"223 160 CURVE",
"225 169 OFFCURVE",
"257 241 OFFCURVE",
"283 295 CURVE SMOOTH",
"296 325 OFFCURVE",
"312 355 OFFCURVE",
"315 359 CURVE SMOOTH",
"327 379 OFFCURVE",
"343 372 OFFCURVE",
"344 366 CURVE SMOOTH",
"352 329 OFFCURVE",
"384 169 OFFCURVE",
"385 160 CURVE SMOOTH",
"387 152 OFFCURVE",
"379 153 OFFCURVE",
"379 153 CURVE SMOOTH"
);
}
);
width = 600;
}
);
unicode = 0061;
},
{
glyphname = b;
lastChange = "2023-06-27 06:02:13 +0000";
layers = (
{
layerId = "718666B1-ADB8-4383-879A-27DBFADAFA96";
paths = (
{
closed = 1;
nodes = (
"450 218 OFFCURVE",
"436 236 OFFCURVE",
"422 246 CURVE",
"408 256 OFFCURVE",
"393 265 OFFCURVE",
"390 266 CURVE",
"387 267 OFFCURVE",
"382 268 OFFCURVE",
"387 273 CURVE",
"393 278 OFFCURVE",
"407 292 OFFCURVE",
"409 297 CURVE",
"412 302 OFFCURVE",
"424 324 OFFCURVE",
"425 333 CURVE",
"426 342 OFFCURVE",
"429 374 OFFCURVE",
"426 384 CURVE",
"424 395 OFFCURVE",
"424 409 OFFCURVE",
"415 424 CURVE",
"407 438 OFFCURVE",
"393 459 OFFCURVE",
"374 470 CURVE",
"356 480 OFFCURVE",
"332 492 OFFCURVE",
"297 492 CURVE",
"262 492 OFFCURVE",
"165 492 OFFCURVE",
"165 492 CURVE",
"165 492 OFFCURVE",
"161 492 OFFCURVE",
"160 489 CURVE",
"160 486 OFFCURVE",
"160 482 OFFCURVE",
"160 481 CURVE",
"160 481 OFFCURVE",
"160 42 OFFCURVE",
"160 42 CURVE",
"160 3 LINE",
"160 3 OFFCURVE",
"161 1 OFFCURVE",
"163 0 CURVE",
"165 0 OFFCURVE",
"215 1 OFFCURVE",
"215 1 CURVE",
"215 1 OFFCURVE",
"218 1 OFFCURVE",
"219 6 CURVE",
"219 11 OFFCURVE",
"219 22 OFFCURVE",
"219 22 CURVE",
"219 22 OFFCURVE",
"219 25 OFFCURVE",
"221 24 CURVE",
"223 24 OFFCURVE",
"250 8 OFFCURVE",
"257 7 CURVE",
"264 5 OFFCURVE",
"272 -1 OFFCURVE",
"315 0 CURVE",
"359 2 OFFCURVE",
"366 4 OFFCURVE",
"399 19 CURVE",
"431 35 OFFCURVE",
"453 66 OFFCURVE",
"458 76 CURVE",
"463 86 OFFCURVE",
"475 115 OFFCURVE",
"474 139 CURVE",
"472 164 OFFCURVE",
"470 187 OFFCURVE",
"460 203 CURVE"
);
},
{
closed = 1;
nodes = (
"247 447 OFFCURVE",
"282 451 OFFCURVE",
"312 443 CURVE",
"332 438 OFFCURVE",
"350 425 OFFCURVE",
"359 407 CURVE",
"364 397 OFFCURVE",
"366 385 OFFCURVE",
"367 373 CURVE",
"368 359 OFFCURVE",
"367 344 OFFCURVE",
"364 330 CURVE",
"360 317 OFFCURVE",
"353 305 OFFCURVE",
"343 295 CURVE",
"332 285 OFFCURVE",
"321 283 OFFCURVE",
"306 283 CURVE",
"278 281 OFFCURVE",
"249 280 OFFCURVE",
"224 266 CURVE",
"222 266 OFFCURVE",
"219 265 OFFCURVE",
"219 267 CURVE",
"218 267 OFFCURVE",
"218 268 OFFCURVE",
"218 268 CURVE",
"218 270 OFFCURVE",
"218 272 OFFCURVE",
"218 274 CURVE",
"218 309 OFFCURVE",
"218 345 OFFCURVE",
"218 380 CURVE",
"218 394 OFFCURVE",
"218 409 OFFCURVE",
"218 423 CURVE",
"218 423 OFFCURVE",
"217 428 OFFCURVE",
"220 430 CURVE"
);
},
{
closed = 1;
nodes = (
"349 49 OFFCURVE",
"335 47 OFFCURVE",
"322 46 CURVE SMOOTH",
"304 45 OFFCURVE",
"286 47 OFFCURVE",
"268 52 CURVE SMOOTH",
"260 55 OFFCURVE",
"251 58 OFFCURVE",
"243 63 CURVE SMOOTH",
"237 66 OFFCURVE",
"226 71 OFFCURVE",
"222 77 CURVE SMOOTH",
"220 81 OFFCURVE",
"218 77 OFFCURVE",
"218 91 CURVE SMOOTH",
"219 105 OFFCURVE",
"218 206 OFFCURVE",
"218 206 CURVE SMOOTH",
"218 206 OFFCURVE",
"218 209 OFFCURVE",
"221 212 CURVE SMOOTH",
"256 235 OFFCURVE",
"305 241 OFFCURVE",
"345 231 CURVE SMOOTH",
"362 226 OFFCURVE",
"378 219 OFFCURVE",
"390 207 CURVE SMOOTH",
"401 195 OFFCURVE",
"408 179 OFFCURVE",
"411 162 CURVE SMOOTH",
"418 119 OFFCURVE",
"406 71 OFFCURVE",
"362 54 CURVE SMOOTH"
);
}
);
width = 600;
}
);
unicode = 0062;
},
{
glyphname = c;
lastChange = "2023-06-27 06:02:21 +0000";
layers = (
{
layerId = "718666B1-ADB8-4383-879A-27DBFADAFA96";
paths = (
{
closed = 1;
nodes = (
"428 355 OFFCURVE",
"471 355 OFFCURVE",
"473 355 CURVE SMOOTH",
"480 355 OFFCURVE",
"471 377 OFFCURVE",
"470 380 CURVE SMOOTH",
"467 393 OFFCURVE",
"461 405 OFFCURVE",
"454 417 CURVE SMOOTH",
"440 440 OFFCURVE",
"420 460 OFFCURVE",
"396 473 CURVE SMOOTH",
"361 492 OFFCURVE",
"315 495 OFFCURVE",
"276 490 CURVE SMOOTH",
"241 486 OFFCURVE",
"217 480 OFFCURVE",
"184 455 CURVE SMOOTH",
"151 431 OFFCURVE",
"128 387 OFFCURVE",
"122 338 CURVE SMOOTH",
"117 289 OFFCURVE",
"122 158 OFFCURVE",
"122 158 CURVE",
"125 97 OFFCURVE",
"163 41 OFFCURVE",
"220 16 CURVE SMOOTH",
"247 4 OFFCURVE",
"277 0 OFFCURVE",
"306 0 CURVE SMOOTH",
"327 0 OFFCURVE",
"349 2 OFFCURVE",
"369 8 CURVE SMOOTH",
"391 14 OFFCURVE",
"407 26 OFFCURVE",
"424 41 CURVE SMOOTH",
"440 55 OFFCURVE",
"454 73 OFFCURVE",
"463 93 CURVE SMOOTH",
"477 127 OFFCURVE",
"474 150 OFFCURVE",
"474 150 CURVE SMOOTH",
"474 150 OFFCURVE",
"475 153 OFFCURVE",
"472 153 CURVE",
"421 153 LINE SMOOTH",
"421 153 OFFCURVE",
"416 154 OFFCURVE",
"415 148 CURVE SMOOTH",
"411 131 OFFCURVE",
"408 116 OFFCURVE",
"399 102 CURVE SMOOTH",
"388 85 OFFCURVE",
"373 72 OFFCURVE",
"355 64 CURVE SMOOTH",
"330 53 OFFCURVE",
"301 53 OFFCURVE",
"275 60 CURVE SMOOTH",
"250 66 OFFCURVE",
"225 80 OFFCURVE",
"207 97 CURVE SMOOTH",
"190 113 OFFCURVE",
"184 138 OFFCURVE",
"181 161 CURVE SMOOTH",
"177 194 OFFCURVE",
"179 229 OFFCURVE",
"179 262 CURVE SMOOTH",
"179 274 OFFCURVE",
"179 286 OFFCURVE",
"179 297 CURVE SMOOTH",
"179 313 OFFCURVE",
"179 329 OFFCURVE",
"182 344 CURVE SMOOTH",
"186 366 OFFCURVE",
"196 390 OFFCURVE",
"213 404 CURVE SMOOTH",
"230 419 OFFCURVE",
"248 431 OFFCURVE",
"270 435 CURVE SMOOTH",
"306 443 OFFCURVE",
"330 441 OFFCURVE",
"357 430 CURVE SMOOTH",
"373 424 OFFCURVE",
"388 413 OFFCURVE",
"398 398 CURVE SMOOTH",
"403 391 OFFCURVE",
"406 383 OFFCURVE",
"408 375 CURVE SMOOTH",
"409 371 OFFCURVE",
"411 355 OFFCURVE",
"416 355 CURVE SMOOTH"
);
}
);
width = 600;
}
);
unicode = 0063;
},
{
glyphname = d;
lastChange = "2023-06-27 06:02:29 +0000";
layers = (
{
layerId = "718666B1-ADB8-4383-879A-27DBFADAFA96";
paths = (
{
closed = 1;
nodes = (
"550 292 OFFCURVE",
"535 354 OFFCURVE",
"508 391 CURVE",
"468 448 OFFCURVE",
"424 482 OFFCURVE",
"355 490 CURVE",
"303 496 OFFCURVE",
"248 492 OFFCURVE",
"196 492 CURVE",
"153 492 OFFCURVE",
"110 492 OFFCURVE",
"67 492 CURVE",
"59 492 OFFCURVE",
"60 484 OFFCURVE",
"60 484 CURVE",
"60 484 OFFCURVE",
"60 484 OFFCURVE",
"60 483 CURVE",
"60 469 OFFCURVE",
"60 454 OFFCURVE",
"60 439 CURVE",
"60 406 OFFCURVE",
"60 373 OFFCURVE",
"60 340 CURVE",
"60 299 OFFCURVE",
"60 259 OFFCURVE",
"60 218 CURVE",
"60 180 OFFCURVE",
"60 142 OFFCURVE",
"60 103 CURVE",
"60 71 OFFCURVE",
"59 49 OFFCURVE",
"60 6 CURVE",
"60 4 OFFCURVE",
"61 2 OFFCURVE",
"62 1 CURVE",
"63 1 OFFCURVE",
"64 1 OFFCURVE",
"65 1 CURVE",
"90 1 OFFCURVE",
"115 0 OFFCURVE",
"141 0 CURVE",
"166 0 OFFCURVE",
"192 0 OFFCURVE",
"218 0 CURVE",
"265 0 OFFCURVE",
"287 1 OFFCURVE",
"350 1 CURVE",
"463 1 OFFCURVE",
"524 117 OFFCURVE",
"530 129 CURVE",
"549 172 OFFCURVE",
"550 196 OFFCURVE",
"550 246 CURVE"
);
},
{
closed = 1;
nodes = (
"464 125 OFFCURVE",
"443 96 OFFCURVE",
"416 75 CURVE SMOOTH",
"358 31 OFFCURVE",
"283 39 OFFCURVE",
"215 39 CURVE SMOOTH",
"196 39 OFFCURVE",
"148 39 OFFCURVE",
"129 40 CURVE SMOOTH",
"129 40 OFFCURVE",
"118 37 OFFCURVE",
"118 51 CURVE SMOOTH",
"119 441 LINE",
"119 441 OFFCURVE",
"118 452 OFFCURVE",
"121 453 CURVE SMOOTH",
"124 455 OFFCURVE",
"129 455 OFFCURVE",
"133 455 CURVE SMOOTH",
"136 455 OFFCURVE",
"288 455 OFFCURVE",
"288 455 CURVE SMOOTH",
"334 455 OFFCURVE",
"378 445 OFFCURVE",
"415 417 CURVE SMOOTH",
"445 393 OFFCURVE",
"467 360 OFFCURVE",
"477 324 CURVE SMOOTH",
"484 299 OFFCURVE",
"486 273 OFFCURVE",
"486 247 CURVE SMOOTH",
"486 217 OFFCURVE",
"485 187 OFFCURVE",
"475 158 CURVE SMOOTH"
);
}
);
width = 600;
}
);
unicode = 0064;
},
{
glyphname = e;
lastChange = "2023-06-27 06:02:36 +0000";
layers = (
{
layerId = "718666B1-ADB8-4383-879A-27DBFADAFA96";
paths = (
{
closed = 1;
nodes = (
"120 487 OFFCURVE",
"119 492 OFFCURVE",
"125 492 CURVE SMOOTH",
"131 492 OFFCURVE",
"174 492 OFFCURVE",
"174 492 CURVE SMOOTH",
"174 492 OFFCURVE",
"179 493 OFFCURVE",
"179 487 CURVE SMOOTH",
"179 480 OFFCURVE",
"179 343 OFFCURVE",
"179 343 CURVE",
"483 343 LINE",
"483 343 OFFCURVE",
"488 343 OFFCURVE",
"488 338 CURVE SMOOTH",
"488 332 OFFCURVE",
"488 289 OFFCURVE",
"488 289 CURVE SMOOTH",
"488 289 OFFCURVE",
"489 284 OFFCURVE",
"482 284 CURVE SMOOTH",
"475 284 OFFCURVE",
"179 284 OFFCURVE",
"179 284 CURVE",
"179 63 LINE",
"179 63 OFFCURVE",
"178 58 OFFCURVE",
"185 58 CURVE SMOOTH",
"191 58 OFFCURVE",
"482 58 OFFCURVE",
"482 58 CURVE SMOOTH",
"482 58 OFFCURVE",
"488 59 OFFCURVE",
"488 53 CURVE SMOOTH",
"488 48 OFFCURVE",
"488 5 OFFCURVE",
"488 5 CURVE SMOOTH",
"488 5 OFFCURVE",
"489 0 OFFCURVE",
"482 0 CURVE SMOOTH",
"476 0 OFFCURVE",
"127 0 OFFCURVE",
"127 0 CURVE SMOOTH",
"127 0 OFFCURVE",
"120 -1 OFFCURVE",
"120 7 CURVE SMOOTH",
"120 15 OFFCURVE",
"120 487 OFFCURVE",
"120 487 CURVE SMOOTH"
);
}
);
width = 600;
}
);
unicode = 0065;
},
{
glyphname = f;
lastChange = "2023-06-27 06:02:43 +0000";
layers = (
{
layerId = "718666B1-ADB8-4383-879A-27DBFADAFA96";
paths = (
{
closed = 1;
nodes = (
"140 466 OFFCURVE",
"144 492 OFFCURVE",
"166 492 CURVE SMOOTH",
"188 492 OFFCURVE",
"377 492 OFFCURVE",
"448 492 CURVE SMOOTH",
"460 492 OFFCURVE",
"474 487 OFFCURVE",
"474 464 CURVE SMOOTH",
"474 442 OFFCURVE",
"463 433 OFFCURVE",
"449 433 CURVE SMOOTH",
"441 433 OFFCURVE",
"210 433 OFFCURVE",
"210 433 CURVE SMOOTH",
"210 433 OFFCURVE",
"206 433 OFFCURVE",
"205 433 CURVE SMOOTH",
"204 432 OFFCURVE",
"204 428 OFFCURVE",
"204 428 CURVE",
"204 276 LINE",
"204 276 OFFCURVE",
"204 273 OFFCURVE",
"205 272 CURVE SMOOTH",
"205 271 OFFCURVE",
"209 271 OFFCURVE",
"209 271 CURVE",
"327 271 LINE",
"327 271 OFFCURVE",
"354 268 OFFCURVE",
"354 242 CURVE SMOOTH",
"354 216 OFFCURVE",
"327 213 OFFCURVE",
"327 213 CURVE SMOOTH",
"209 213 LINE SMOOTH",
"209 213 OFFCURVE",
"205 213 OFFCURVE",
"205 211 CURVE SMOOTH",
"204 210 OFFCURVE",
"204 210 OFFCURVE",
"204 206 CURVE SMOOTH",
"204 203 OFFCURVE",
"204 32 OFFCURVE",
"204 32 CURVE SMOOTH",
"204 32 OFFCURVE",
"201 1 OFFCURVE",
"173 0 CURVE SMOOTH",
"145 -1 OFFCURVE",
"140 25 OFFCURVE",
"140 32 CURVE SMOOTH",
"140 39 OFFCURVE",
"140 466 OFFCURVE",
"140 466 CURVE SMOOTH"
);
}
);
width = 600;
}
);
unicode = 0066;
},
{
glyphname = g;
lastChange = "2023-06-27 06:02:54 +0000";
layers = (
{
layerId = "718666B1-ADB8-4383-879A-27DBFADAFA96";
paths = (
{
closed = 1;
nodes = (
"461 252 LINE",
"461 252 OFFCURVE",
"470 253 OFFCURVE",
"470 246 CURVE SMOOTH",
"470 239 OFFCURVE",
"470 6 OFFCURVE",
"470 6 CURVE SMOOTH",
"470 6 OFFCURVE",
"471 0 OFFCURVE",
"464 0 CURVE SMOOTH",
"458 0 OFFCURVE",
"423 0 OFFCURVE",
"423 0 CURVE SMOOTH",
"423 0 OFFCURVE",
"419 -1 OFFCURVE",
"419 4 CURVE SMOOTH",
"419 9 OFFCURVE",
"418 70 OFFCURVE",
"418 70 CURVE SMOOTH",
"418 70 OFFCURVE",
"395 49 OFFCURVE",
"391 46 CURVE SMOOTH",
"387 44 OFFCURVE",
"360 26 OFFCURVE",
"342 24 CURVE SMOOTH",
"325 21 OFFCURVE",
"276 18 OFFCURVE",
"259 20 CURVE SMOOTH",
"242 23 OFFCURVE",
"218 28 OFFCURVE",
"205 37 CURVE SMOOTH",
"193 45 OFFCURVE",
"164 61 OFFCURVE",
"150 80 CURVE SMOOTH",
"137 99 OFFCURVE",
"118 127 OFFCURVE",
"114 159 CURVE SMOOTH",
"110 191 OFFCURVE",
"110 247 OFFCURVE",
"110 264 CURVE SMOOTH",
"110 281 OFFCURVE",
"110 341 OFFCURVE",
"114 357 CURVE SMOOTH",
"118 373 OFFCURVE",
"126 421 OFFCURVE",
"183 462 CURVE SMOOTH",
"241 503 OFFCURVE",
"329 495 OFFCURVE",
"366 481 CURVE SMOOTH",
"403 468 OFFCURVE",
"420 452 OFFCURVE",
"429 443 CURVE SMOOTH",
"437 434 OFFCURVE",
"457 410 OFFCURVE",
"463 389 CURVE SMOOTH",
"470 369 OFFCURVE",
"472 359 OFFCURVE",
"472 353 CURVE SMOOTH",
"473 347 OFFCURVE",
"473 333 OFFCURVE",
"473 333 CURVE SMOOTH",
"473 333 OFFCURVE",
"473 330 OFFCURVE",
"469 330 CURVE SMOOTH",
"465 330 OFFCURVE",
"426 330 OFFCURVE",
"426 330 CURVE SMOOTH",
"426 330 OFFCURVE",
"421 329 OFFCURVE",
"420 334 CURVE SMOOTH",
"420 340 OFFCURVE",
"417 363 OFFCURVE",
"409 380 CURVE SMOOTH",
"400 397 OFFCURVE",
"384 415 OFFCURVE",
"370 422 CURVE SMOOTH",
"356 429 OFFCURVE",
"332 442 OFFCURVE",
"299 441 CURVE SMOOTH",
"266 440 OFFCURVE",
"238 437 OFFCURVE",
"211 417 CURVE SMOOTH",
"183 396 OFFCURVE",
"170 365 OFFCURVE",
"168 343 CURVE SMOOTH",
"167 321 OFFCURVE",
"168 180 OFFCURVE",
"168 180 CURVE SMOOTH",
"168 180 OFFCURVE",
"171 139 OFFCURVE",
"188 120 CURVE SMOOTH",
"204 101 OFFCURVE",
"229 70 OFFCURVE",
"285 70 CURVE SMOOTH",
"341 69 OFFCURVE",
"363 86 OFFCURVE",
"363 86 CURVE SMOOTH",
"363 86 OFFCURVE",
"390 102 OFFCURVE",
"400 122 CURVE SMOOTH",
"410 142 OFFCURVE",
"414 145 OFFCURVE",
"415 163 CURVE SMOOTH",
"416 180 OFFCURVE",
"416 201 OFFCURVE",
"416 201 CURVE SMOOTH",
"416 201 OFFCURVE",
"417 204 OFFCURVE",
"413 204 CURVE SMOOTH",
"410 204 OFFCURVE",
"281 204 OFFCURVE",
"281 204 CURVE SMOOTH",
"281 204 OFFCURVE",
"276 204 OFFCURVE",
"276 209 CURVE SMOOTH",
"276 214 OFFCURVE",
"276 249 OFFCURVE",
"276 249 CURVE SMOOTH",
"276 249 OFFCURVE",
"275 252 OFFCURVE",
"281 252 CURVE SMOOTH"
);
}
);
width = 600;
}
);
unicode = 0067;
},
{
glyphname = h;
lastChange = "2023-06-27 06:03:02 +0000";
layers = (
{
layerId = "718666B1-ADB8-4383-879A-27DBFADAFA96";
paths = (
{
closed = 1;
nodes = (
"218 492 LINE",
"218 237 LINE",
"394 237 LINE",
"394 492 LINE",
"453 492 LINE",
"453 0 LINE",
"394 0 LINE",
"394 178 LINE",
"218 178 LINE",
"218 0 LINE",
"160 0 LINE",
"160 492 LINE"
);
}
);
width = 600;
}
);
unicode = 0068;
},
{
glyphname = i;
lastChange = "2023-06-27 06:03:11 +0000";
layers = (
{
layerId = "718666B1-ADB8-4383-879A-27DBFADAFA96";
paths = (
{
closed = 1;
nodes = (
"329 0 LINE",
"270 0 LINE",
"270 492 LINE",
"329 492 LINE",
"329 226 LINE",
"329 226 LINE"
);
}
);
width = 600;
}
);
unicode = 0069;
},
{
glyphname = j;
lastChange = "2023-06-27 06:03:18 +0000";
layers = (
{
layerId = "718666B1-ADB8-4383-879A-27DBFADAFA96";
paths = (
{
closed = 1;
nodes = (
"395 423 OFFCURVE",
"408 437 OFFCURVE",
"424 437 CURVE",
"440 437 OFFCURVE",
"453 423 OFFCURVE",
"453 407 CURVE",
"453 391 OFFCURVE",
"440 378 OFFCURVE",
"424 378 CURVE",
"408 378 OFFCURVE",
"395 391 OFFCURVE",
"395 407 CURVE"
);
},
{
closed = 1;
nodes = (
"283 491 OFFCURVE",
"283 492 OFFCURVE",
"285 492 CURVE SMOOTH",
"287 492 OFFCURVE",
"340 492 OFFCURVE",
"340 492 CURVE SMOOTH",
"340 492 OFFCURVE",
"342 493 OFFCURVE",
"342 491 CURVE SMOOTH",
"342 489 OFFCURVE",
"342 111 OFFCURVE",
"342 111 CURVE SMOOTH",
"342 111 OFFCURVE",
"343 82 OFFCURVE",
"335 64 CURVE SMOOTH",
"327 47 OFFCURVE",
"316 23 OFFCURVE",
"288 10 CURVE SMOOTH",
"260 -2 OFFCURVE",
"234 -1 OFFCURVE",
"217 1 CURVE SMOOTH",
"200 3 OFFCURVE",
"171 10 OFFCURVE",
"171 10 CURVE SMOOTH",
"171 10 OFFCURVE",
"170 10 OFFCURVE",
"170 13 CURVE SMOOTH",
"170 16 OFFCURVE",
"170 67 OFFCURVE",
"170 67 CURVE SMOOTH",
"170 67 OFFCURVE",
"169 69 OFFCURVE",
"171 68 CURVE SMOOTH",
"173 67 OFFCURVE",
"195 60 OFFCURVE",
"205 57 CURVE SMOOTH",
"214 54 OFFCURVE",
"241 51 OFFCURVE",
"255 57 CURVE SMOOTH",
"268 64 OFFCURVE",
"277 77 OFFCURVE",
"279 87 CURVE SMOOTH",
"281 96 OFFCURVE",
"283 107 OFFCURVE",
"283 120 CURVE SMOOTH",
"283 132 OFFCURVE",
"283 491 OFFCURVE",
"283 491 CURVE SMOOTH"
);
}
);
width = 600;
}
);
unicode = 006A;
},
{
glyphname = k;
lastChange = "2023-06-27 06:03:27 +0000";
layers = (
{
layerId = "718666B1-ADB8-4383-879A-27DBFADAFA96";
paths = (
{
closed = 1;
nodes = (
"150 491 OFFCURVE",
"150 492 OFFCURVE",
"152 492 CURVE SMOOTH",
"154 492 OFFCURVE",
"207 492 OFFCURVE",
"207 492 CURVE SMOOTH",
"207 492 OFFCURVE",
"209 493 OFFCURVE",
"209 490 CURVE SMOOTH",
"209 488 OFFCURVE",
"209 258 OFFCURVE",
"209 258 CURVE SMOOTH",
"209 258 OFFCURVE",
"212 252 OFFCURVE",
"216 256 CURVE SMOOTH",
"220 261 OFFCURVE",
"407 495 OFFCURVE",
"407 495 CURVE SMOOTH",
"407 495 OFFCURVE",
"407 496 OFFCURVE",
"409 496 CURVE SMOOTH",
"411 496 OFFCURVE",
"469 496 OFFCURVE",
"469 496 CURVE SMOOTH",
"469 496 OFFCURVE",
"471 496 OFFCURVE",
"471 494 CURVE SMOOTH",
"471 492 OFFCURVE",
"471 482 OFFCURVE",
"471 482 CURVE SMOOTH",
"471 482 OFFCURVE",
"470 481 OFFCURVE",
"469 480 CURVE SMOOTH",
"468 478 OFFCURVE",
"283 246 OFFCURVE",
"283 246 CURVE SMOOTH",
"283 246 OFFCURVE",
"281 245 OFFCURVE",
"283 242 CURVE SMOOTH",
"469 0 LINE",
"398 0 LINE SMOOTH",
"398 0 OFFCURVE",
"395 0 OFFCURVE",
"393 2 CURVE SMOOTH",
"242 197 LINE",
"211 168 LINE",
"211 168 OFFCURVE",
"209 167 OFFCURVE",
"209 163 CURVE SMOOTH",
"209 159 OFFCURVE",
"209 2 OFFCURVE",
"209 2 CURVE SMOOTH",
"209 2 OFFCURVE",
"209 0 OFFCURVE",
"207 0 CURVE SMOOTH",
"205 0 OFFCURVE",
"152 0 OFFCURVE",
"152 0 CURVE SMOOTH",
"152 0 OFFCURVE",
"150 0 OFFCURVE",
"150 2 CURVE SMOOTH",
"150 4 OFFCURVE",
"150 491 OFFCURVE",
"150 491 CURVE SMOOTH"
);
}
);
width = 600;
}
);
unicode = 006B;
},
{
glyphname = l;
lastChange = "2023-06-27 06:03:37 +0000";
layers = (
{
layerId = "718666B1-ADB8-4383-879A-27DBFADAFA96";
paths = (
{
closed = 1;
nodes = (
"260 494 OFFCURVE",
"260 495 OFFCURVE",
"261 495 CURVE SMOOTH",
"262 495 OFFCURVE",
"354 495 OFFCURVE",
"354 495 CURVE SMOOTH",
"354 495 OFFCURVE",
"356 496 OFFCURVE",
"356 493 CURVE SMOOTH",
"356 489 OFFCURVE",
"357 2 OFFCURVE",
"357 2 CURVE SMOOTH",
"357 2 OFFCURVE",
"357 0 OFFCURVE",
"356 0 CURVE SMOOTH",
"355 0 OFFCURVE",
"354 0 OFFCURVE",
"354 0 CURVE SMOOTH",
"300 0 LINE SMOOTH",
"300 0 OFFCURVE",
"298 0 OFFCURVE",
"298 0 CURVE",
"298 438 LINE",
"260 438 LINE",
"260 494 LINE"
);
}
);
width = 600;
}
);
unicode = 006C;
},
{
glyphname = m;
lastChange = "2023-06-27 06:08:05 +0000";
layers = (
{
layerId = "718666B1-ADB8-4383-879A-27DBFADAFA96";
paths = (
{
closed = 1;
nodes = (
"0.249 3.541 OFFCURVE",
"-0.266 0.086 OFFCURVE",
"3.198 0.073 CURVE SMOOTH",
"6.662 0.059 OFFCURVE",
"54.24 0.073 OFFCURVE",
"54.24 0.073 CURVE SMOOTH",
"54.24 0.073 OFFCURVE",
"59.063 -0.515 OFFCURVE",
"58.966 4.332 CURVE SMOOTH",
"58.868 9.179 OFFCURVE",
"59.016 354.453 OFFCURVE",
"59.016 354.453 CURVE SMOOTH",
"59.016 354.453 OFFCURVE",
"57.949 399.51 OFFCURVE",
"96.055 414.671 CURVE SMOOTH",
"134.16 429.831 OFFCURVE",
"170.422 401.967 OFFCURVE",
"177.792 379.501 CURVE SMOOTH",
"185.163 357.035 OFFCURVE",
"180.847 339.662 OFFCURVE",
"180.838 316.171 CURVE SMOOTH",
"180.829 292.681 OFFCURVE",
"180.704 3.948 OFFCURVE",
"180.704 3.948 CURVE SMOOTH",
"180.704 3.948 OFFCURVE",
"180.148 0.16 OFFCURVE",
"183.876 0.16 CURVE SMOOTH",
"187.604 0.16 OFFCURVE",
"236.398 0.16 OFFCURVE",
"236.398 0.16 CURVE SMOOTH",
"236.398 0.16 OFFCURVE",
"240.652 -0.902 OFFCURVE",
"240.652 5.091 CURVE SMOOTH",
"240.652 11.083 OFFCURVE",
"240.652 351.825 OFFCURVE",
"240.652 351.825 CURVE SMOOTH",
"240.652 351.825 OFFCURVE",
"242.568 406.41 OFFCURVE",
"300.204 420.154 CURVE SMOOTH",
"357.839 433.897 OFFCURVE",
"415.547 401.448 OFFCURVE",
"415.404 358.974 CURVE SMOOTH",
"415.26 316.5 OFFCURVE",
"415.404 3.95 OFFCURVE",
"415.404 3.95 CURVE SMOOTH",
"415.404 3.95 OFFCURVE",
"415.191 0.181 OFFCURVE",
"419.093 0.181 CURVE SMOOTH",
"422.996 0.181 OFFCURVE",
"470.41 0.181 OFFCURVE",
"470.41 0.181 CURVE SMOOTH",
"470.41 0.181 OFFCURVE",
"474.377 -0.341 OFFCURVE",
"474.377 3.639 CURVE SMOOTH",
"474.377 7.619 OFFCURVE",
"474.377 357.437 OFFCURVE",
"474.377 357.437 CURVE SMOOTH",
"474.377 357.437 OFFCURVE",
"474.976 401.834 OFFCURVE",
"515.091 417.54 CURVE SMOOTH",
"555.205 433.246 OFFCURVE",
"599.883 400.108 OFFCURVE",
"599.883 366.652 CURVE SMOOTH",
"599.883 333.196 OFFCURVE",
"599.971 4.253 OFFCURVE",
"599.971 4.253 CURVE SMOOTH",
"599.971 4.253 OFFCURVE",
"599.341 0.32 OFFCURVE",
"603.159 0.32 CURVE SMOOTH",
"606.977 0.32 OFFCURVE",
"654.989 0.017 OFFCURVE",
"654.989 0.017 CURVE SMOOTH",
"654.989 0.017 OFFCURVE",
"658.599 -0.491 OFFCURVE",
"658.599 4.054 CURVE SMOOTH",
"658.599 8.599 OFFCURVE",
"658.599 376.67 OFFCURVE",
"658.599 376.67 CURVE SMOOTH",
"658.599 376.67 OFFCURVE",
"667.788 433.996 OFFCURVE",
"614.584 468.432 CURVE SMOOTH",
"561.38 502.867 OFFCURVE",
"517.172 491.477 OFFCURVE",
"491.953 477.702 CURVE SMOOTH",
"466.734 463.927 OFFCURVE",
"453.237 447.909 OFFCURVE",
"453.237 447.909 CURVE SMOOTH",
"453.237 447.909 OFFCURVE",
"450.309 443.652 OFFCURVE",
"446.431 447.53 CURVE SMOOTH",
"442.553 451.409 OFFCURVE",
"414.405 481.024 OFFCURVE",
"360.721 489.101 CURVE SMOOTH",
"307.036 497.179 OFFCURVE",
"264.011 479.466 OFFCURVE",
"241.351 462.477 CURVE SMOOTH",
"218.692 445.488 OFFCURVE",
"220.708 446.104 OFFCURVE",
"220.708 446.104 CURVE SMOOTH",
"220.708 446.104 OFFCURVE",
"218.065 443.591 OFFCURVE",
"214.066 448.513 CURVE SMOOTH",
"210.067 453.435 OFFCURVE",
"190.344 474.49 OFFCURVE",
"159.871 483.298 CURVE SMOOTH",
"129.398 492.106 OFFCURVE",
"104.801 491.501 OFFCURVE",
"69.38 472.983 CURVE SMOOTH",
"33.958 454.466 OFFCURVE",
"21.014 429.846 OFFCURVE",
"19.042 426.556 CURVE SMOOTH",
"17.071 423.266 OFFCURVE",
"6.309 402.135 OFFCURVE",
"3.768 388.113 CURVE SMOOTH",
"1.228 374.09 OFFCURVE",
"0.332 367.511 OFFCURVE",
"0.336 362.041 CURVE SMOOTH",
"0.34 356.572 OFFCURVE",
"0.249 3.541 OFFCURVE",
"0.249 3.541 CURVE SMOOTH"
);
}
);
width = 660;
}
);
unicode = 006D;
},
{
glyphname = n;
lastChange = "2023-06-27 06:03:46 +0000";
layers = (
{
layerId = "718666B1-ADB8-4383-879A-27DBFADAFA96";
paths = (
{
closed = 1;
nodes = (
"121 487 OFFCURVE",
"120 492 OFFCURVE",
"126 492 CURVE SMOOTH",
"131 492 OFFCURVE",
"175 492 OFFCURVE",
"175 492 CURVE SMOOTH",
"175 492 OFFCURVE",
"180 493 OFFCURVE",
"180 487 CURVE SMOOTH",
"180 482 OFFCURVE",
"180 447 OFFCURVE",
"180 447 CURVE SMOOTH",
"180 447 OFFCURVE",
"210 470 OFFCURVE",
"241 481 CURVE SMOOTH",
"282 495 OFFCURVE",
"304 496 OFFCURVE",
"337 483 CURVE SMOOTH",
"370 471 OFFCURVE",
"408 448 OFFCURVE",
"408 448 CURVE",
"408 487 LINE",
"408 487 OFFCURVE",
"407 492 OFFCURVE",
"415 492 CURVE SMOOTH",
"422 492 OFFCURVE",
"462 492 OFFCURVE",
"462 492 CURVE SMOOTH",
"462 492 OFFCURVE",
"466 492 OFFCURVE",
"466 488 CURVE SMOOTH",
"466 483 OFFCURVE",
"466 2 OFFCURVE",
"466 2 CURVE SMOOTH",
"466 2 OFFCURVE",
"467 0 OFFCURVE",
"465 0 CURVE SMOOTH",
"463 0 OFFCURVE",
"409 0 OFFCURVE",
"409 0 CURVE SMOOTH",
"409 0 OFFCURVE",
"407 0 OFFCURVE",
"407 3 CURVE SMOOTH",
"407 6 OFFCURVE",
"407 308 OFFCURVE",
"407 308 CURVE",
"406 332 LINE",
"406 332 OFFCURVE",
"393 382 OFFCURVE",
"377 396 CURVE SMOOTH",
"360 410 OFFCURVE",
"342 426 OFFCURVE",
"322 428 CURVE SMOOTH",
"302 431 OFFCURVE",
"266 434 OFFCURVE",
"244 422 CURVE SMOOTH",
"223 410 OFFCURVE",
"199 393 OFFCURVE",
"191 370 CURVE SMOOTH",
"183 347 OFFCURVE",
"180 335 OFFCURVE",
"180 326 CURVE SMOOTH",
"180 318 OFFCURVE",
"180 8 OFFCURVE",
"180 8 CURVE",
"180 2 LINE",
"180 2 OFFCURVE",
"180 0 OFFCURVE",
"175 0 CURVE SMOOTH",
"170 0 OFFCURVE",
"123 0 OFFCURVE",
"123 0 CURVE SMOOTH",
"123 0 OFFCURVE",
"121 0 OFFCURVE",
"121 4 CURVE SMOOTH",
"121 8 OFFCURVE",
"121 487 OFFCURVE",
"121 487 CURVE SMOOTH"
);
}
);
width = 600;
}
);
unicode = 006E;
},
{
glyphname = o;
lastChange = "2023-06-27 06:04:01 +0000";
layers = (
{
layerId = "718666B1-ADB8-4383-879A-27DBFADAFA96";
paths = (
{
closed = 1;
nodes = (
"178 492 OFFCURVE",
"75 382 OFFCURVE",
"75 246 CURVE",
"75 110 OFFCURVE",
"178 0 OFFCURVE",
"304 0 CURVE",
"431 0 OFFCURVE",
"533 110 OFFCURVE",
"533 246 CURVE",
"533 382 OFFCURVE",
"431 492 OFFCURVE",
"304 492 CURVE"
);
},
{
closed = 1;
nodes = (
"213 59 OFFCURVE",
"135 139 OFFCURVE",
"135 242 CURVE SMOOTH",
"135 345 OFFCURVE",
"209 432 OFFCURVE",
"305 432 CURVE SMOOTH",
"400 432 OFFCURVE",
"475 345 OFFCURVE",
"475 242 CURVE SMOOTH",
"475 139 OFFCURVE",
"403 59 OFFCURVE",
"308 59 CURVE SMOOTH"
);
}
);
width = 600;
}
);
unicode = 006F;
},
{
glyphname = p;
lastChange = "2023-06-27 06:04:08 +0000";
layers = (
{
layerId = "718666B1-ADB8-4383-879A-27DBFADAFA96";
paths = (
{
closed = 1;
nodes = (
"478 412 OFFCURVE",
"453 445 OFFCURVE",
"416 467 CURVE",
"380 490 OFFCURVE",
"341 492 OFFCURVE",
"341 492 CURVE",
"341 492 OFFCURVE",
"145 492 OFFCURVE",
"142 492 CURVE",
"140 492 OFFCURVE",
"140 490 OFFCURVE",
"140 490 CURVE",
"140 487 LINE",
"140 487 OFFCURVE",
"140 5 OFFCURVE",
"140 2 CURVE",
"140 0 OFFCURVE",
"142 0 OFFCURVE",
"142 0 CURVE",
"142 0 OFFCURVE",
"192 0 OFFCURVE",
"195 0 CURVE",
"199 0 OFFCURVE",
"198 3 OFFCURVE",
"198 3 CURVE",
"198 3 OFFCURVE",
"198 140 OFFCURVE",
"198 143 CURVE",
"198 146 OFFCURVE",
"201 146 OFFCURVE",
"201 146 CURVE",
"201 146 OFFCURVE",
"329 145 OFFCURVE",
"340 146 CURVE",
"348 147 OFFCURVE",
"385 152 OFFCURVE",
"399 156 CURVE",
"451 171 OFFCURVE",
"467 200 OFFCURVE",
"482 233 CURVE",
"498 265 OFFCURVE",
"500 322 OFFCURVE",
"489 367 CURVE"
);
},
{
closed = 1;
nodes = (
"420 230 OFFCURVE",
"393 205 OFFCURVE",
"342 205 CURVE SMOOTH",
"288 205 OFFCURVE",
"202 205 OFFCURVE",
"202 205 CURVE SMOOTH",
"202 205 OFFCURVE",
"200 204 OFFCURVE",
"200 206 CURVE SMOOTH",
"200 209 OFFCURVE",
"199 431 OFFCURVE",
"199 431 CURVE SMOOTH",
"199 431 OFFCURVE",
"199 433 OFFCURVE",
"202 433 CURVE SMOOTH",
"204 433 OFFCURVE",
"343 433 OFFCURVE",
"343 433 CURVE SMOOTH",
"343 433 OFFCURVE",
"367 434 OFFCURVE",
"394 416 CURVE SMOOTH",
"422 398 OFFCURVE",
"428 376 OFFCURVE",
"432 361 CURVE SMOOTH",
"435 346 OFFCURVE",
"442 299 OFFCURVE",
"431 265 CURVE SMOOTH"
);
}
);
width = 600;
}
);
unicode = 0070;
},
{
glyphname = q;
lastChange = "2023-06-27 06:04:22 +0000";
layers = (
{
layerId = "718666B1-ADB8-4383-879A-27DBFADAFA96";
paths = (
{
closed = 1;
nodes = (
"449 376 LINE",
"447 403 OFFCURVE",
"432 431 OFFCURVE",
"416 448 CURVE",
"400 464 OFFCURVE",
"360 495 OFFCURVE",
"295 492 CURVE",
"230 488 OFFCURVE",
"197 447 OFFCURVE",
"197 447 CURVE",
"163 412 OFFCURVE",
"163 373 OFFCURVE",
"163 373 CURVE",
"163 219 LINE",
"163 177 OFFCURVE",
"189 144 OFFCURVE",
"189 144 CURVE",
"200 127 OFFCURVE",
"228 102 OFFCURVE",
"268 93 CURVE",
"308 83 OFFCURVE",
"341 90 OFFCURVE",
"364 97 CURVE",
"387 105 OFFCURVE",
"388 116 OFFCURVE",
"389 116 CURVE",
"390 116 OFFCURVE",
"390 115 OFFCURVE",
"390 115 CURVE",
"390 115 OFFCURVE",
"390 3 OFFCURVE",
"390 1 CURVE",
"390 0 OFFCURVE",
"391 0 OFFCURVE",
"391 0 CURVE",
"391 0 OFFCURVE",
"445 0 OFFCURVE",
"447 0 CURVE",
"449 0 OFFCURVE",
"449 2 OFFCURVE",
"449 2 CURVE"
);
},
{
closed = 1;
nodes = (
"389 184 OFFCURVE",
"382 145 OFFCURVE",
"306 146 CURVE SMOOTH",
"230 146 OFFCURVE",
"222 195 OFFCURVE",
"222 219 CURVE SMOOTH",
"222 244 OFFCURVE",
"222 370 OFFCURVE",
"222 370 CURVE SMOOTH",
"222 370 OFFCURVE",
"215 433 OFFCURVE",
"307 433 CURVE SMOOTH",
"400 433 OFFCURVE",
"390 371 OFFCURVE",
"390 371 CURVE SMOOTH",
"390 371 OFFCURVE",
"391 208 OFFCURVE",
"390 193 CURVE SMOOTH"
);
}
);
width = 600;
}
);
unicode = 0071;
},
{
glyphname = r;
lastChange = "2023-06-27 06:04:35 +0000";
layers = (
{
layerId = "718666B1-ADB8-4383-879A-27DBFADAFA96";
paths = (
{
closed = 1;
nodes = (
"474 131 OFFCURVE",
"475 153 OFFCURVE",
"458 184 CURVE",
"442 216 OFFCURVE",
"418 224 OFFCURVE",
"417 225 CURVE",
"415 225 OFFCURVE",
"412 225 OFFCURVE",
"417 230 CURVE",
"425 237 OFFCURVE",
"439 250 OFFCURVE",
"452 271 CURVE",
"472 304 OFFCURVE",
"475 355 OFFCURVE",
"472 380 CURVE",
"469 405 OFFCURVE",
"454 441 OFFCURVE",
"435 459 CURVE",
"427 468 OFFCURVE",
"398 492 OFFCURVE",
"361 492 CURVE",
"312 492 OFFCURVE",
"165 492 OFFCURVE",
"154 492 CURVE",
"145 492 OFFCURVE",
"145 489 OFFCURVE",
"145 483 CURVE",
"145 365 OFFCURVE",
"145 21 OFFCURVE",
"145 10 CURVE",
"145 -1 OFFCURVE",
"155 0 OFFCURVE",
"155 0 CURVE",
"155 0 OFFCURVE",
"187 0 OFFCURVE",
"197 0 CURVE",
"206 0 OFFCURVE",
"205 8 OFFCURVE",
"205 8 CURVE",
"205 8 OFFCURVE",
"205 194 OFFCURVE",
"205 200 CURVE",
"205 206 OFFCURVE",
"210 206 OFFCURVE",
"210 206 CURVE",
"210 206 OFFCURVE",
"310 206 OFFCURVE",
"316 206 CURVE",
"321 206 OFFCURVE",
"338 205 OFFCURVE",
"354 200 CURVE",
"370 195 OFFCURVE",
"388 185 OFFCURVE",
"401 166 CURVE",
"414 147 OFFCURVE",
"416 101 OFFCURVE",
"416 101 CURVE",
"416 8 LINE",
"416 0 OFFCURVE",
"422 0 OFFCURVE",
"422 0 CURVE",
"422 0 OFFCURVE",
"459 0 OFFCURVE",
"467 0 CURVE",
"476 0 OFFCURVE",
"475 7 OFFCURVE",
"475 7 CURVE",
"475 7 OFFCURVE",
"475 81 OFFCURVE",
"475 106 CURVE"
);
},
{
closed = 1;
nodes = (
"272 265 OFFCURVE",
"211 265 OFFCURVE",
"211 265 CURVE SMOOTH",
"211 265 OFFCURVE",
"205 263 OFFCURVE",
"205 271 CURVE SMOOTH",
"205 279 OFFCURVE",
"205 427 OFFCURVE",
"205 427 CURVE SMOOTH",
"205 427 OFFCURVE",
"205 434 OFFCURVE",
"211 433 CURVE",
"211 433 OFFCURVE",
"323 433 OFFCURVE",
"361 433 CURVE SMOOTH",
"367 433 OFFCURVE",
"391 427 OFFCURVE",
"406 398 CURVE SMOOTH",
"422 368 OFFCURVE",
"415 314 OFFCURVE",
"401 301 CURVE SMOOTH",
"388 288 OFFCURVE",
"382 265 OFFCURVE",
"327 265 CURVE SMOOTH"
);
}
);
width = 600;
}
);
unicode = 0072;
},
{
glyphname = s;
lastChange = "2023-06-27 06:04:44 +0000";
layers = (
{
layerId = "718666B1-ADB8-4383-879A-27DBFADAFA96";
paths = (
{
closed = 1;
nodes = (
"425 260 OFFCURVE",
"384 266 OFFCURVE",
"351 271 CURVE SMOOTH",
"257 285 LINE SMOOTH",
"241 287 OFFCURVE",
"224 290 OFFCURVE",
"211 300 CURVE SMOOTH",
"187 317 OFFCURVE",
"183 350 OFFCURVE",
"189 373 CURVE SMOOTH",
"197 400 OFFCURVE",
"219 416 OFFCURVE",
"258 422 CURVE SMOOTH",
"323 433 OFFCURVE",
"392 422 OFFCURVE",
"450 391 CURVE SMOOTH",
"458 387 OFFCURVE",
"465 382 OFFCURVE",
"471 375 CURVE",
"476 368 LINE",
"476 368 OFFCURVE",
"476 428 OFFCURVE",
"476 436 CURVE SMOOTH",
"476 440 OFFCURVE",
"474 442 OFFCURVE",
"441 454 CURVE SMOOTH",
"438 455 LINE SMOOTH",
"422 461 OFFCURVE",
"405 466 OFFCURVE",
"387 469 CURVE SMOOTH",
"358 474 OFFCURVE",
"325 476 OFFCURVE",
"282 474 CURVE SMOOTH",
"232 472 OFFCURVE",
"169 464 OFFCURVE",
"137 414 CURVE SMOOTH",
"122 391 OFFCURVE",
"120 362 OFFCURVE",
"120 334 CURVE SMOOTH",
"120 303 OFFCURVE",
"134 273 OFFCURVE",
"156 256 CURVE SMOOTH",
"172 243 OFFCURVE",
"191 237 OFFCURVE",
"210 232 CURVE SMOOTH",
"240 224 OFFCURVE",
"272 219 OFFCURVE",
"308 215 CURVE SMOOTH",
"317 214 LINE SMOOTH",
"335 212 OFFCURVE",
"354 210 OFFCURVE",
"372 204 CURVE SMOOTH",
"385 200 OFFCURVE",
"408 189 OFFCURVE",
"419 166 CURVE SMOOTH",
"434 132 OFFCURVE",
"418 86 OFFCURVE",
"384 67 CURVE SMOOTH",
"364 56 OFFCURVE",
"340 55 OFFCURVE",
"319 55 CURVE SMOOTH",
"236 56 OFFCURVE",
"171 75 OFFCURVE",
"127 112 CURVE SMOOTH",
"120 118 LINE",
"120 52 LINE",
"133 46 LINE SMOOTH",
"166 30 OFFCURVE",
"197 16 OFFCURVE",
"233 9 CURVE SMOOTH",
"263 3 OFFCURVE",
"289 0 OFFCURVE",
"313 0 CURVE SMOOTH",
"332 0 OFFCURVE",
"349 2 OFFCURVE",
"366 5 CURVE SMOOTH",
"399 12 OFFCURVE",
"427 26 OFFCURVE",
"448 45 CURVE SMOOTH",
"469 64 OFFCURVE",
"484 93 OFFCURVE",
"488 125 CURVE SMOOTH",
"495 169 OFFCURVE",
"482 210 OFFCURVE",
"454 234 CURVE SMOOTH"
);
}
);
width = 600;
}
);
unicode = 0073;
},
{
glyphname = t;
lastChange = "2023-06-27 06:04:55 +0000";
layers = (
{
layerId = "718666B1-ADB8-4383-879A-27DBFADAFA96";
paths = (
{
closed = 1;
nodes = (
"465 492 LINE",
"465 492 OFFCURVE",
"488 491 OFFCURVE",
"488 473 CURVE SMOOTH",
"488 454 OFFCURVE",
"488 450 OFFCURVE",
"488 450 CURVE SMOOTH",
"488 450 OFFCURVE",
"489 434 OFFCURVE",
"467 434 CURVE SMOOTH",
"445 434 OFFCURVE",
"373 434 OFFCURVE",
"373 434 CURVE SMOOTH",
"373 434 OFFCURVE",
"334 434 OFFCURVE",
"334 391 CURVE SMOOTH",
"334 349 OFFCURVE",
"334 23 OFFCURVE",
"334 23 CURVE SMOOTH",
"334 23 OFFCURVE",
"335 0 OFFCURVE",
"318 0 CURVE SMOOTH",
"301 0 OFFCURVE",
"293 0 OFFCURVE",
"293 0 CURVE SMOOTH",
"293 0 OFFCURVE",
"275 -3 OFFCURVE",
"275 16 CURVE SMOOTH",
"275 35 OFFCURVE",
"275 386 OFFCURVE",
"275 386 CURVE SMOOTH",
"275 386 OFFCURVE",
"275 407 OFFCURVE",
"266 418 CURVE SMOOTH",
"258 429 OFFCURVE",
"247 434 OFFCURVE",
"228 434 CURVE SMOOTH",
"208 434 OFFCURVE",
"126 434 OFFCURVE",
"126 434 CURVE SMOOTH",
"126 434 OFFCURVE",
"110 432 OFFCURVE",
"110 451 CURVE SMOOTH",
"110 469 OFFCURVE",
"110 474 OFFCURVE",
"110 474 CURVE SMOOTH",
"110 474 OFFCURVE",
"108 492 OFFCURVE",
"131 492 CURVE SMOOTH"
);
}
);
width = 600;
}
);
unicode = 0074;
},
{
glyphname = u;
lastChange = "2023-06-27 06:05:08 +0000";
layers = (
{
layerId = "718666B1-ADB8-4383-879A-27DBFADAFA96";
paths = (
{
closed = 1;
nodes = (
"92 492 LINE",
"92 492 OFFCURVE",
"100 494 OFFCURVE",
"100 484 CURVE SMOOTH",
"100 475 OFFCURVE",
"100 223 OFFCURVE",
"100 223 CURVE SMOOTH",
"100 223 OFFCURVE",
"103 149 OFFCURVE",
"150 106 CURVE SMOOTH",
"193 67 OFFCURVE",
"277 60 OFFCURVE",
"313 60 CURVE SMOOTH",
"366 60 OFFCURVE",
"438 80 OFFCURVE",
"477 127 CURVE SMOOTH",
"500 155 OFFCURVE",
"506 204 OFFCURVE",
"506 230 CURVE SMOOTH",
"506 302 OFFCURVE",
"506 486 OFFCURVE",
"506 486 CURVE SMOOTH",
"506 486 OFFCURVE",
"505 492 OFFCURVE",
"513 492 CURVE SMOOTH",
"558 492 LINE",
"558 492 OFFCURVE",
"564 493 OFFCURVE",
"564 486 CURVE SMOOTH",
"564 478 OFFCURVE",
"564 227 OFFCURVE",
"564 227 CURVE SMOOTH",
"564 227 OFFCURVE",
"562 138 OFFCURVE",
"551 120 CURVE SMOOTH",
"540 102 OFFCURVE",
"516 48 OFFCURVE",
"444 22 CURVE SMOOTH",
"371 -4 OFFCURVE",
"275 -5 OFFCURVE",
"205 9 CURVE SMOOTH",
"135 23 OFFCURVE",
"70 71 OFFCURVE",
"54 129 CURVE SMOOTH",
"38 187 OFFCURVE",
"42 247 OFFCURVE",
"42 260 CURVE SMOOTH",
"42 272 OFFCURVE",
"42 487 OFFCURVE",
"42 487 CURVE SMOOTH",
"42 487 OFFCURVE",
"41 492 OFFCURVE",
"47 492 CURVE SMOOTH"
);
}
);
width = 600;
}
);
unicode = 0075;
},
{
glyphname = v;
lastChange = "2023-06-27 06:05:19 +0000";
layers = (
{
layerId = "718666B1-ADB8-4383-879A-27DBFADAFA96";
paths = (
{
closed = 1;
nodes = (
"201 492 LINE",
"201 492 OFFCURVE",
"207 491 OFFCURVE",
"205 487 CURVE SMOOTH",
"204 484 OFFCURVE",
"196 464 OFFCURVE",
"199 454 CURVE SMOOTH",
"201 443 OFFCURVE",
"294 168 OFFCURVE",
"294 168 CURVE",
"297 158 LINE",
"297 158 OFFCURVE",
"302 146 OFFCURVE",
"306 158 CURVE SMOOTH",
"310 169 OFFCURVE",
"401 446 OFFCURVE",
"401 446 CURVE SMOOTH",
"401 446 OFFCURVE",
"404 462 OFFCURVE",
"402 470 CURVE SMOOTH",
"399 478 OFFCURVE",
"396 486 OFFCURVE",
"396 486 CURVE SMOOTH",
"396 486 OFFCURVE",
"393 492 OFFCURVE",
"398 492 CURVE SMOOTH",
"404 492 OFFCURVE",
"473 492 OFFCURVE",
"473 492 CURVE SMOOTH",
"473 492 OFFCURVE",
"478 492 OFFCURVE",
"477 486 CURVE SMOOTH",
"476 480 OFFCURVE",
"421 316 OFFCURVE",
"421 316 CURVE",
"316 4 LINE",
"316 4 OFFCURVE",
"317 0 OFFCURVE",
"312 0 CURVE SMOOTH",
"308 0 OFFCURVE",
"293 0 OFFCURVE",
"293 0 CURVE SMOOTH",
"293 0 OFFCURVE",
"290 0 OFFCURVE",
"290 3 CURVE SMOOTH",
"124 483 LINE",
"124 483 OFFCURVE",
"121 492 OFFCURVE",
"127 492 CURVE SMOOTH"
);
}
);
width = 600;
}
);
unicode = 0076;
},
{
glyphname = w;
lastChange = "2023-06-27 06:08:12 +0000";
layers = (
{
layerId = "718666B1-ADB8-4383-879A-27DBFADAFA96";
paths = (
{
closed = 1;
nodes = (
"574.165 400.726 OFFCURVE",
"520.962 118.154 OFFCURVE",
"515.156 93.19 CURVE SMOOTH",
"513.392 85.606 OFFCURVE",
"508.706 65.458 OFFCURVE",
"489.833 65.458 CURVE SMOOTH",
"480.503 65.458 OFFCURVE",
"468.689 70.408 OFFCURVE",
"465.063 93.83 CURVE",
"437.196 219.316 OFFCURVE",
"396.194 402.66 OFFCURVE",
"385.096 449.184 CURVE",
"292.967 449.187 LINE",
"256.672 449.184 LINE",
"245.953 391.695 OFFCURVE",
"196.201 125.041 OFFCURVE",
"190.707 98.642 CURVE SMOOTH",
"185.675 74.465 OFFCURVE",
"173.33 69.39 OFFCURVE",
"163.859 69.39 CURVE SMOOTH",
"154.994 69.39 OFFCURVE",
"142.864 74.063 OFFCURVE",
"135.424 96.321 CURVE SMOOTH",
"134.95 97.74 LINE",
"134.687 99.211 LINE SMOOTH",
"120.283 179.787 OFFCURVE",
"98.039 302.973 OFFCURVE",
"95.791 312.086 CURVE SMOOTH",
"95.542 313.015 OFFCURVE",
"72.569 411.136 OFFCURVE",
"65.835 448.751 CURVE",
"-0.481 448.751 LINE",
"10.475 397.155 OFFCURVE",
"82.972 57.97 OFFCURVE",
"94.957 0 CURVE",
"95.747 0 OFFCURVE",
"96.624 0 OFFCURVE",
"97.585 0 CURVE SMOOTH",
"123.747 0 OFFCURVE",
"211.048 0.04 OFFCURVE",
"231.058 0.044 CURVE",
"244.52 67.149 OFFCURVE",
"294 313.076 OFFCURVE",
"299.472 329.935 CURVE SMOOTH",
"305.665 349.014 OFFCURVE",
"317.942 351.861 OFFCURVE",
"324.708 351.86 CURVE SMOOTH",
"335.742 351.858 OFFCURVE",
"345.337 344.164 OFFCURVE",
"350.378 331.276 CURVE SMOOTH",
"350.98 329.737 LINE",
"351.328 328.12 LINE SMOOTH",
"376.835 209.48 OFFCURVE",
"414.897 33.543 OFFCURVE",
"422.739 0.029 CURVE",
"560.823 0.029 LINE",
"594.789 158.03 OFFCURVE",
"643.318 384.649 OFFCURVE",
"656.353 448.751 CURVE",
"583.185 448.751 LINE"
);
}
);
width = 656;
}
);
unicode = 0077;
},
{
glyphname = x;
lastChange = "2023-06-27 06:06:23 +0000";
layers = (
{
layerId = "718666B1-ADB8-4383-879A-27DBFADAFA96";
paths = (
{
closed = 1;
nodes = (
"487 36 OFFCURVE",
"345 216 OFFCURVE",
"341 222 CURVE SMOOTH",
"336 230 OFFCURVE",
"337 238 OFFCURVE",
"342 243 CURVE",
"396 313 OFFCURVE",
"498 445 OFFCURVE",
"505 454 CURVE",
"505 458 OFFCURVE",
"505 465 OFFCURVE",
"505 471 CURVE",
"442 471 LINE SMOOTH",
"441 471 OFFCURVE",
"441 471 OFFCURVE",
"440 471 CURVE",
"397 414 OFFCURVE",
"315 307 OFFCURVE",
"311 302 CURVE SMOOTH",
"306 295 OFFCURVE",
"301 295 OFFCURVE",
"298 295 CURVE SMOOTH",
"292 295 OFFCURVE",
"287 298 OFFCURVE",
"284 302 CURVE",
"270 319 OFFCURVE",
"161 457 OFFCURVE",
"150 471 CURVE",
"149 471 LINE",
"149 471 LINE",
"105 471 LINE",
"89 471 LINE",
"89 467 OFFCURVE",
"89 461 OFFCURVE",
"89 457 CURVE SMOOTH",
"89 455 OFFCURVE",
"89 453 OFFCURVE",
"90 453 CURVE",
"249 249 LINE SMOOTH",
"253 244 OFFCURVE",
"256 239 OFFCURVE",
"256 232 CURVE SMOOTH",
"256 225 OFFCURVE",
"251 219 OFFCURVE",
"249 217 CURVE",
"239 204 OFFCURVE",
"94 15 OFFCURVE",
"89 9 CURVE",
"89 0 LINE",
"158 0 LINE",
"206 62 OFFCURVE",
"279 155 OFFCURVE",
"284 162 CURVE",
"288 170 OFFCURVE",
"293 171 OFFCURVE",
"298 171 CURVE SMOOTH",
"298 171 LINE",
"299 171 LINE",
"299 171 LINE SMOOTH",
"307 171 OFFCURVE",
"311 165 OFFCURVE",
"313 162 CURVE",
"328 142 OFFCURVE",
"436 5 OFFCURVE",
"440 0 CURVE",
"441 0 OFFCURVE",
"443 0 OFFCURVE",
"444 0 CURVE",
"451 0 OFFCURVE",
"487 0 OFFCURVE",
"505 1 CURVE",
"505 4 OFFCURVE",
"505 9 OFFCURVE",
"505 12 CURVE SMOOTH",
"505 13 OFFCURVE",
"505 14 OFFCURVE",
"504 14 CURVE",
"503 15 LINE SMOOTH"
);
}
);
width = 600;
}
);
unicode = 0078;
},
{
glyphname = y;
lastChange = "2023-06-27 06:06:40 +0000";
layers = (
{
layerId = "718666B1-ADB8-4383-879A-27DBFADAFA96";
paths = (
{
closed = 1;
nodes = (
"125 492 LINE",
"125 492 OFFCURVE",
"131 493 OFFCURVE",
"134 487 CURVE SMOOTH",
"138 481 OFFCURVE",
"295 209 OFFCURVE",
"295 209 CURVE",
"457 489 LINE",
"457 489 OFFCURVE",
"459 492 OFFCURVE",
"463 492 CURVE SMOOTH",
"527 492 LINE",
"527 492 OFFCURVE",
"325 145 OFFCURVE",
"325 142 CURVE SMOOTH",
"325 133 OFFCURVE",
"325 6 OFFCURVE",
"325 6 CURVE SMOOTH",
"325 6 OFFCURVE",
"325 0 OFFCURVE",
"319 0 CURVE SMOOTH",
"314 0 OFFCURVE",
"271 0 OFFCURVE",
"271 0 CURVE SMOOTH",
"271 0 OFFCURVE",
"265 0 OFFCURVE",
"265 6 CURVE SMOOTH",
"265 12 OFFCURVE",
"266 143 OFFCURVE",
"266 143 CURVE",
"64 492 LINE"
);
}
);
width = 600;
}
);
unicode = 0079;
},
{
glyphname = z;
lastChange = "2023-06-27 06:06:51 +0000";
layers = (
{
layerId = "718666B1-ADB8-4383-879A-27DBFADAFA96";
paths = (
{
closed = 1;
nodes = (
"101 488 OFFCURVE",
"100 492 OFFCURVE",
"105 492 CURVE SMOOTH",
"109 492 OFFCURVE",
"488 492 OFFCURVE",
"488 492 CURVE SMOOTH",
"488 492 OFFCURVE",
"494 491 OFFCURVE",
"490 486 CURVE SMOOTH",
"487 480 OFFCURVE",
"208 65 OFFCURVE",
"208 65 CURVE SMOOTH",
"208 65 OFFCURVE",
"204 60 OFFCURVE",
"211 60 CURVE SMOOTH",
"217 60 OFFCURVE",
"509 60 OFFCURVE",
"509 60 CURVE SMOOTH",
"509 60 OFFCURVE",
"515 61 OFFCURVE",
"515 54 CURVE SMOOTH",
"515 48 OFFCURVE",
"515 6 OFFCURVE",
"515 6 CURVE SMOOTH",
"515 6 OFFCURVE",
"516 0 OFFCURVE",
"509 0 CURVE SMOOTH",
"101 0 LINE SMOOTH",
"101 0 OFFCURVE",
"95 0 OFFCURVE",
"99 7 CURVE SMOOTH",
"103 14 OFFCURVE",
"376 422 OFFCURVE",
"376 422 CURVE SMOOTH",
"376 422 OFFCURVE",
"378 428 OFFCURVE",
"377 429 CURVE SMOOTH",
"377 431 OFFCURVE",
"376 433 OFFCURVE",
"372 432 CURVE SMOOTH",
"367 432 OFFCURVE",
"112 432 OFFCURVE",
"112 432 CURVE SMOOTH",
"112 432 OFFCURVE",
"105 432 OFFCURVE",
"104 432 CURVE SMOOTH",
"102 432 OFFCURVE",
"101 432 OFFCURVE",
"101 434 CURVE SMOOTH",
"101 437 OFFCURVE",
"101 488 OFFCURVE",
"101 488 CURVE SMOOTH"
);
}
);
width = 600;
}
);
unicode = 007A;
},
